<svg width="143" height="43" viewBox="0 0 143 43" fill="none" xmlns="http://www.w3.org/2000/svg">
<path d="M0.576 8V2.04H2.52C3.14933 2.04 3.696 2.168 4.16 2.424C4.62933 2.67467 4.992 3.024 5.248 3.472C5.504 3.91467 5.632 4.42933 5.632 5.016C5.632 5.59733 5.504 6.11467 5.248 6.568C4.992 7.016 4.62933 7.368 4.16 7.624C3.696 7.87467 3.14933 8 2.52 8H0.576ZM1.664 7.04H2.544C2.94933 7.04 3.29867 6.95733 3.592 6.792C3.89067 6.62133 4.12267 6.38667 4.288 6.088C4.45333 5.784 4.536 5.42667 4.536 5.016C4.536 4.6 4.45333 4.24267 4.288 3.944C4.12267 3.64533 3.89067 3.41333 3.592 3.248C3.29867 3.08267 2.94933 3 2.544 3H1.664V7.04ZM7.49788 8V2.04H11.4579V3H8.58588V4.528H11.2979V5.488H8.58588V7.04H11.4579V8H7.49788ZM15.3837 8.096C15.005 8.096 14.653 8.02667 14.3277 7.888C14.0077 7.74933 13.7304 7.55733 13.4957 7.312C13.2664 7.06133 13.0984 6.77067 12.9917 6.44L13.8957 6.048C14.0397 6.38933 14.2477 6.65867 14.5197 6.856C14.7917 7.048 15.0984 7.144 15.4397 7.144C15.6317 7.144 15.797 7.11467 15.9357 7.056C16.0797 6.992 16.189 6.90667 16.2637 6.8C16.3437 6.69333 16.3837 6.56533 16.3837 6.416C16.3837 6.24 16.3304 6.096 16.2237 5.984C16.1224 5.86667 15.9677 5.776 15.7597 5.712L14.6157 5.344C14.1517 5.2 13.8024 4.984 13.5677 4.696C13.333 4.408 13.2157 4.06933 13.2157 3.68C13.2157 3.33867 13.2984 3.03733 13.4637 2.776C13.6344 2.51467 13.869 2.312 14.1677 2.168C14.4717 2.01867 14.8184 1.944 15.2077 1.944C15.565 1.944 15.893 2.008 16.1917 2.136C16.4904 2.25867 16.7464 2.432 16.9597 2.656C17.1784 2.87467 17.341 3.13333 17.4477 3.432L16.5517 3.832C16.4344 3.53333 16.2584 3.304 16.0237 3.144C15.789 2.97867 15.517 2.896 15.2077 2.896C15.0264 2.896 14.8664 2.928 14.7277 2.992C14.589 3.05067 14.4797 3.136 14.3997 3.248C14.325 3.35467 14.2877 3.48267 14.2877 3.632C14.2877 3.79733 14.341 3.944 14.4477 4.072C14.5544 4.19467 14.717 4.29067 14.9357 4.36L16.0317 4.704C16.5064 4.85867 16.861 5.072 17.0957 5.344C17.3357 5.616 17.4557 5.952 17.4557 6.352C17.4557 6.69333 17.3677 6.99467 17.1917 7.256C17.0157 7.51733 16.773 7.72267 16.4637 7.872C16.1544 8.02133 15.7944 8.096 15.3837 8.096ZM19.4354 8V2.04H23.3954V3H20.5234V4.528H23.2354V5.488H20.5234V7.04H23.3954V8H19.4354ZM25.1932 8V2.04H26.0412L29.3212 6.456L28.8812 6.544V2.04H29.9692V8H29.1132L25.8812 3.552L26.2812 3.464V8H25.1932ZM33.7149 8L31.6349 2.04H32.8189L34.4509 6.976H34.2189L35.8509 2.04H37.0349L34.9629 8H33.7149ZM41.4808 8.096C41.0434 8.096 40.6354 8.01867 40.2568 7.864C39.8781 7.70933 39.5474 7.49333 39.2648 7.216C38.9821 6.93867 38.7608 6.61333 38.6008 6.24C38.4461 5.86133 38.3688 5.45333 38.3688 5.016C38.3688 4.57333 38.4461 4.16533 38.6008 3.792C38.7554 3.41867 38.9741 3.09333 39.2568 2.816C39.5394 2.53867 39.8701 2.32533 40.2488 2.176C40.6274 2.02133 41.0381 1.944 41.4808 1.944C41.9234 1.944 42.3341 2.02133 42.7128 2.176C43.0914 2.33067 43.4221 2.54667 43.7048 2.824C43.9874 3.096 44.2061 3.41867 44.3608 3.792C44.5208 4.16533 44.6008 4.57333 44.6008 5.016C44.6008 5.45333 44.5208 5.86133 44.3608 6.24C44.2008 6.61333 43.9794 6.93867 43.6968 7.216C43.4141 7.49333 43.0834 7.70933 42.7048 7.864C42.3314 8.01867 41.9234 8.096 41.4808 8.096ZM41.4808 7.104C41.7741 7.104 42.0434 7.05333 42.2888 6.952C42.5341 6.84533 42.7474 6.69867 42.9288 6.512C43.1154 6.32533 43.2568 6.104 43.3528 5.848C43.4541 5.592 43.5048 5.31467 43.5048 5.016C43.5048 4.71733 43.4541 4.44267 43.3528 4.192C43.2568 3.936 43.1154 3.71467 42.9288 3.528C42.7474 3.336 42.5341 3.18933 42.2888 3.088C42.0434 2.98667 41.7741 2.936 41.4808 2.936C41.1928 2.936 40.9261 2.98667 40.6808 3.088C40.4354 3.18933 40.2194 3.336 40.0328 3.528C39.8514 3.71467 39.7101 3.936 39.6088 4.192C39.5074 4.44267 39.4568 4.71733 39.4568 5.016C39.4568 5.31467 39.5074 5.592 39.6088 5.848C39.7101 6.104 39.8514 6.32533 40.0328 6.512C40.2194 6.69867 40.4354 6.84533 40.6808 6.952C40.9261 7.05333 41.1928 7.104 41.4808 7.104ZM46.5682 8V2.04H47.6562V7.04H50.2082V8H46.5682ZM52.9414 8L50.8614 2.04H52.0454L53.6774 6.976H53.4454L55.0774 2.04H56.2614L54.1894 8H52.9414ZM57.9276 8V2.04H59.0156V8H57.9276ZM61.1619 8V2.04H63.1059C63.7353 2.04 64.2819 2.168 64.7459 2.424C65.2153 2.67467 65.5779 3.024 65.8339 3.472C66.0899 3.91467 66.2179 4.42933 66.2179 5.016C66.2179 5.59733 66.0899 6.11467 65.8339 6.568C65.5779 7.016 65.2153 7.368 64.7459 7.624C64.2819 7.87467 63.7353 8 63.1059 8H61.1619ZM62.2499 7.04H63.1299C63.5353 7.04 63.8846 6.95733 64.1779 6.792C64.4766 6.62133 64.7086 6.38667 64.8739 6.088C65.0393 5.784 65.1219 5.42667 65.1219 5.016C65.1219 4.6 65.0393 4.24267 64.8739 3.944C64.7086 3.64533 64.4766 3.41333 64.1779 3.248C63.8846 3.08267 63.5353 3 63.1299 3H62.2499V7.04ZM71.0198 8.096C70.5825 8.096 70.1745 8.01867 69.7958 7.864C69.4171 7.70933 69.0865 7.49333 68.8038 7.216C68.5211 6.93867 68.2998 6.61333 68.1398 6.24C67.9851 5.86133 67.9078 5.45333 67.9078 5.016C67.9078 4.57333 67.9851 4.16533 68.1398 3.792C68.2945 3.41867 68.5131 3.09333 68.7958 2.816C69.0785 2.53867 69.4091 2.32533 69.7878 2.176C70.1665 2.02133 70.5771 1.944 71.0198 1.944C71.4625 1.944 71.8731 2.02133 72.2518 2.176C72.6305 2.33067 72.9611 2.54667 73.2438 2.824C73.5265 3.096 73.7451 3.41867 73.8998 3.792C74.0598 4.16533 74.1398 4.57333 74.1398 5.016C74.1398 5.45333 74.0598 5.86133 73.8998 6.24C73.7398 6.61333 73.5185 6.93867 73.2358 7.216C72.9531 7.49333 72.6225 7.70933 72.2438 7.864C71.8705 8.01867 71.4625 8.096 71.0198 8.096ZM71.0198 7.104C71.3131 7.104 71.5825 7.05333 71.8278 6.952C72.0731 6.84533 72.2865 6.69867 72.4678 6.512C72.6545 6.32533 72.7958 6.104 72.8918 5.848C72.9931 5.592 73.0438 5.31467 73.0438 5.016C73.0438 4.71733 72.9931 4.44267 72.8918 4.192C72.7958 3.936 72.6545 3.71467 72.4678 3.528C72.2865 3.336 72.0731 3.18933 71.8278 3.088C71.5825 2.98667 71.3131 2.936 71.0198 2.936C70.7318 2.936 70.4651 2.98667 70.2198 3.088C69.9745 3.18933 69.7585 3.336 69.5718 3.528C69.3905 3.71467 69.2491 3.936 69.1478 4.192C69.0465 4.44267 68.9958 4.71733 68.9958 5.016C68.9958 5.31467 69.0465 5.592 69.1478 5.848C69.2491 6.104 69.3905 6.32533 69.5718 6.512C69.7585 6.69867 69.9745 6.84533 70.2198 6.952C70.4651 7.05333 70.7318 7.104 71.0198 7.104ZM78.5291 8V2.04H80.7531C81.1585 2.04 81.5158 2.11467 81.8251 2.264C82.1398 2.408 82.3851 2.62133 82.5611 2.904C82.7371 3.18133 82.8251 3.52 82.8251 3.92C82.8251 4.31467 82.7345 4.65333 82.5531 4.936C82.3771 5.21333 82.1345 5.42667 81.8251 5.576C81.5158 5.72533 81.1585 5.8 80.7531 5.8H79.6171V8H78.5291ZM79.6171 4.84H80.7691C80.9665 4.84 81.1371 4.80267 81.2811 4.728C81.4251 4.648 81.5371 4.53867 81.6171 4.4C81.6971 4.26133 81.7371 4.10133 81.7371 3.92C81.7371 3.73333 81.6971 3.57333 81.6171 3.44C81.5371 3.30133 81.4251 3.19467 81.2811 3.12C81.1371 3.04 80.9665 3 80.7691 3H79.6171V4.84ZM87.6526 8.096C87.2153 8.096 86.8073 8.01867 86.4286 7.864C86.05 7.70933 85.7193 7.49333 85.4366 7.216C85.154 6.93867 84.9326 6.61333 84.7726 6.24C84.618 5.86133 84.5406 5.45333 84.5406 5.016C84.5406 4.57333 84.618 4.16533 84.7726 3.792C84.9273 3.41867 85.146 3.09333 85.4286 2.816C85.7113 2.53867 86.042 2.32533 86.4206 2.176C86.7993 2.02133 87.21 1.944 87.6526 1.944C88.0953 1.944 88.506 2.02133 88.8846 2.176C89.2633 2.33067 89.594 2.54667 89.8766 2.824C90.1593 3.096 90.378 3.41867 90.5326 3.792C90.6926 4.16533 90.7726 4.57333 90.7726 5.016C90.7726 5.45333 90.6926 5.86133 90.5326 6.24C90.3726 6.61333 90.1513 6.93867 89.8686 7.216C89.586 7.49333 89.2553 7.70933 88.8766 7.864C88.5033 8.01867 88.0953 8.096 87.6526 8.096ZM87.6526 7.104C87.946 7.104 88.2153 7.05333 88.4606 6.952C88.706 6.84533 88.9193 6.69867 89.1006 6.512C89.2873 6.32533 89.4286 6.104 89.5246 5.848C89.626 5.592 89.6766 5.31467 89.6766 5.016C89.6766 4.71733 89.626 4.44267 89.5246 4.192C89.4286 3.936 89.2873 3.71467 89.1006 3.528C88.9193 3.336 88.706 3.18933 88.4606 3.088C88.2153 2.98667 87.946 2.936 87.6526 2.936C87.3646 2.936 87.098 2.98667 86.8526 3.088C86.6073 3.18933 86.3913 3.336 86.2046 3.528C86.0233 3.71467 85.882 3.936 85.7806 4.192C85.6793 4.44267 85.6286 4.71733 85.6286 5.016C85.6286 5.31467 85.6793 5.592 85.7806 5.848C85.882 6.104 86.0233 6.32533 86.2046 6.512C86.3913 6.69867 86.6073 6.84533 86.8526 6.952C87.098 7.05333 87.3646 7.104 87.6526 7.104ZM92.7401 8V2.04H94.9561C95.3614 2.04 95.7187 2.11467 96.0281 2.264C96.3427 2.408 96.5881 2.62133 96.7641 2.904C96.9401 3.18133 97.0281 3.52 97.0281 3.92C97.0281 4.33067 96.9294 4.68 96.7321 4.968C96.5401 5.256 96.2787 5.46933 95.9481 5.608L97.3161 8H96.0841L94.6201 5.384L95.3241 5.8H93.8281V8H92.7401ZM93.8281 4.84H94.9721C95.1694 4.84 95.3401 4.80267 95.4841 4.728C95.6281 4.648 95.7401 4.53867 95.8201 4.4C95.9001 4.26133 95.9401 4.10133 95.9401 3.92C95.9401 3.73333 95.9001 3.57333 95.8201 3.44C95.7401 3.30133 95.6281 3.19467 95.4841 3.12C95.3401 3.04 95.1694 3 94.9721 3H93.8281V4.84Z" fill="#989898"/>
<path d="M1.728 37V19.12H7.56C9.448 19.12 11.088 19.504 12.48 20.272C13.888 21.024 14.976 22.072 15.744 23.416C16.512 24.744 16.896 26.288 16.896 28.048C16.896 29.792 16.512 31.344 15.744 32.704C14.976 34.048 13.888 35.104 12.48 35.872C11.088 36.624 9.448 37 7.56 37H1.728ZM4.992 34.12H7.632C8.848 34.12 9.896 33.872 10.776 33.376C11.672 32.864 12.368 32.16 12.864 31.264C13.36 30.352 13.608 29.28 13.608 28.048C13.608 26.8 13.36 25.728 12.864 24.832C12.368 23.936 11.672 23.24 10.776 22.744C9.896 22.248 8.848 22 7.632 22H4.992V34.12ZM19.2296 37V23.944H22.3736V37H19.2296ZM19.2296 22.48V19.12H22.3736V22.48H19.2296ZM31.6125 42.28C30.6365 42.28 29.7325 42.12 28.9005 41.8C28.0685 41.48 27.3485 41.032 26.7405 40.456C26.1485 39.896 25.7165 39.232 25.4445 38.464L28.3725 37.36C28.5645 37.968 28.9405 38.456 29.5005 38.824C30.0765 39.208 30.7805 39.4 31.6125 39.4C32.2525 39.4 32.8125 39.28 33.2925 39.04C33.7885 38.8 34.1725 38.448 34.4445 37.984C34.7165 37.536 34.8525 36.992 34.8525 36.352V33.376L35.4525 34.096C35.0045 34.88 34.4045 35.472 33.6525 35.872C32.9005 36.272 32.0445 36.472 31.0845 36.472C29.8685 36.472 28.7805 36.192 27.8205 35.632C26.8605 35.072 26.1085 34.304 25.5645 33.328C25.0205 32.352 24.7485 31.256 24.7485 30.04C24.7485 28.808 25.0205 27.712 25.5645 26.752C26.1085 25.792 26.8525 25.04 27.7965 24.496C28.7405 23.936 29.8125 23.656 31.0125 23.656C31.9885 23.656 32.8445 23.864 33.5805 24.28C34.3325 24.68 34.9565 25.264 35.4525 26.032L35.0205 26.824V23.944H37.9965V36.352C37.9965 37.488 37.7165 38.504 37.1565 39.4C36.6125 40.296 35.8605 41 34.9005 41.512C33.9565 42.024 32.8605 42.28 31.6125 42.28ZM31.4685 33.568C32.1405 33.568 32.7245 33.424 33.2205 33.136C33.7325 32.832 34.1325 32.416 34.4205 31.888C34.7085 31.36 34.8525 30.752 34.8525 30.064C34.8525 29.392 34.7005 28.792 34.3965 28.264C34.1085 27.72 33.7085 27.296 33.1965 26.992C32.7005 26.688 32.1245 26.536 31.4685 26.536C30.8125 26.536 30.2205 26.688 29.6925 26.992C29.1645 27.296 28.7485 27.72 28.4445 28.264C28.1565 28.792 28.0125 29.392 28.0125 30.064C28.0125 30.736 28.1565 31.336 28.4445 31.864C28.7485 32.392 29.1565 32.808 29.6685 33.112C30.1965 33.416 30.7965 33.568 31.4685 33.568ZM40.9328 37V23.944H44.0768V37H40.9328ZM40.9328 22.48V19.12H44.0768V22.48H40.9328ZM52.9316 37.144C51.4596 37.144 50.3156 36.744 49.4996 35.944C48.6996 35.128 48.2996 33.984 48.2996 32.512V26.752H46.0436V23.944H46.2836C46.9236 23.944 47.4196 23.776 47.7716 23.44C48.1236 23.104 48.2996 22.616 48.2996 21.976V20.968H51.4436V23.944H54.4436V26.752H51.4436V32.344C51.4436 32.776 51.5156 33.144 51.6596 33.448C51.8196 33.752 52.0596 33.984 52.3796 34.144C52.7156 34.304 53.1396 34.384 53.6516 34.384C53.7636 34.384 53.8916 34.376 54.0356 34.36C54.1956 34.344 54.3476 34.328 54.4916 34.312V37C54.2676 37.032 54.0116 37.064 53.7236 37.096C53.4356 37.128 53.1716 37.144 52.9316 37.144ZM60.8068 37.288C59.8948 37.288 59.1028 37.136 58.4308 36.832C57.7588 36.528 57.2388 36.096 56.8708 35.536C56.5028 34.96 56.3188 34.296 56.3188 33.544C56.3188 32.824 56.4788 32.184 56.7988 31.624C57.1188 31.048 57.6148 30.568 58.2868 30.184C58.9588 29.8 59.8068 29.528 60.8308 29.368L65.1028 28.672V31.072L61.4308 31.696C60.8068 31.808 60.3428 32.008 60.0388 32.296C59.7348 32.584 59.5828 32.96 59.5828 33.424C59.5828 33.872 59.7508 34.232 60.0868 34.504C60.4388 34.76 60.8708 34.888 61.3828 34.888C62.0388 34.888 62.6148 34.752 63.1108 34.48C63.6228 34.192 64.0148 33.8 64.2868 33.304C64.5748 32.808 64.7188 32.264 64.7188 31.672V28.312C64.7188 27.752 64.4948 27.288 64.0468 26.92C63.6148 26.536 63.0388 26.344 62.3188 26.344C61.6468 26.344 61.0468 26.528 60.5188 26.896C60.0068 27.248 59.6308 27.72 59.3908 28.312L56.8228 27.064C57.0788 26.376 57.4788 25.784 58.0228 25.288C58.5828 24.776 59.2388 24.376 59.9908 24.088C60.7428 23.8 61.5588 23.656 62.4388 23.656C63.5108 23.656 64.4548 23.856 65.2708 24.256C66.0868 24.64 66.7188 25.184 67.1668 25.888C67.6308 26.576 67.8628 27.384 67.8628 28.312V37H64.8868V34.768L65.5588 34.72C65.2228 35.28 64.8228 35.752 64.3588 36.136C63.8948 36.504 63.3668 36.792 62.7748 37C62.1828 37.192 61.5268 37.288 60.8068 37.288ZM70.7687 37V18.832H73.9127V37H70.7687ZM81.3452 37V19.12H87.1772C89.0652 19.12 90.7052 19.504 92.0972 20.272C93.5052 21.024 94.5932 22.072 95.3612 23.416C96.1292 24.744 96.5132 26.288 96.5132 28.048C96.5132 29.792 96.1292 31.344 95.3612 32.704C94.5932 34.048 93.5052 35.104 92.0972 35.872C90.7052 36.624 89.0652 37 87.1772 37H81.3452ZM84.6092 34.12H87.2492C88.4652 34.12 89.5132 33.872 90.3932 33.376C91.2892 32.864 91.9852 32.16 92.4812 31.264C92.9772 30.352 93.2252 29.28 93.2252 28.048C93.2252 26.8 92.9772 25.728 92.4812 24.832C91.9852 23.936 91.2892 23.24 90.3932 22.744C89.5132 22.248 88.4652 22 87.2492 22H84.6092V34.12ZM98.8468 37V23.944H101.991V37H98.8468ZM98.8468 22.48V19.12H101.991V22.48H98.8468ZM108.83 37L103.694 23.944H107.126L110.846 34.216H109.574L113.318 23.944H116.75L111.614 37H108.83ZM121.979 37.288C121.067 37.288 120.275 37.136 119.603 36.832C118.931 36.528 118.411 36.096 118.043 35.536C117.675 34.96 117.491 34.296 117.491 33.544C117.491 32.824 117.651 32.184 117.971 31.624C118.291 31.048 118.787 30.568 119.459 30.184C120.131 29.8 120.979 29.528 122.003 29.368L126.275 28.672V31.072L122.603 31.696C121.979 31.808 121.515 32.008 121.211 32.296C120.907 32.584 120.755 32.96 120.755 33.424C120.755 33.872 120.923 34.232 121.259 34.504C121.611 34.76 122.043 34.888 122.555 34.888C123.211 34.888 123.787 34.752 124.283 34.48C124.795 34.192 125.187 33.8 125.459 33.304C125.747 32.808 125.891 32.264 125.891 31.672V28.312C125.891 27.752 125.667 27.288 125.219 26.92C124.787 26.536 124.211 26.344 123.491 26.344C122.819 26.344 122.219 26.528 121.691 26.896C121.179 27.248 120.803 27.72 120.563 28.312L117.995 27.064C118.251 26.376 118.651 25.784 119.195 25.288C119.755 24.776 120.411 24.376 121.163 24.088C121.915 23.8 122.731 23.656 123.611 23.656C124.683 23.656 125.627 23.856 126.443 24.256C127.259 24.64 127.891 25.184 128.339 25.888C128.803 26.576 129.035 27.384 129.035 28.312V37H126.059V34.768L126.731 34.72C126.395 35.28 125.995 35.752 125.531 36.136C125.067 36.504 124.539 36.792 123.947 37C123.355 37.192 122.699 37.288 121.979 37.288ZM136.909 37.288C135.517 37.288 134.301 36.96 133.261 36.304C132.237 35.632 131.533 34.728 131.149 33.592L133.501 32.464C133.837 33.2 134.301 33.776 134.893 34.192C135.501 34.608 136.173 34.816 136.909 34.816C137.485 34.816 137.941 34.688 138.277 34.432C138.613 34.176 138.781 33.84 138.781 33.424C138.781 33.168 138.709 32.96 138.565 32.8C138.437 32.624 138.253 32.48 138.013 32.368C137.789 32.24 137.541 32.136 137.269 32.056L135.133 31.456C134.029 31.136 133.189 30.648 132.613 29.992C132.053 29.336 131.773 28.56 131.773 27.664C131.773 26.864 131.973 26.168 132.373 25.576C132.789 24.968 133.357 24.496 134.077 24.16C134.813 23.824 135.653 23.656 136.597 23.656C137.829 23.656 138.917 23.952 139.861 24.544C140.805 25.136 141.477 25.968 141.877 27.04L139.477 28.168C139.253 27.576 138.877 27.104 138.349 26.752C137.821 26.4 137.229 26.224 136.573 26.224C136.045 26.224 135.629 26.344 135.325 26.584C135.021 26.824 134.869 27.136 134.869 27.52C134.869 27.76 134.933 27.968 135.061 28.144C135.189 28.32 135.365 28.464 135.589 28.576C135.829 28.688 136.101 28.792 136.405 28.888L138.493 29.512C139.565 29.832 140.389 30.312 140.965 30.952C141.557 31.592 141.853 32.376 141.853 33.304C141.853 34.088 141.645 34.784 141.229 35.392C140.813 35.984 140.237 36.448 139.501 36.784C138.765 37.12 137.901 37.288 136.909 37.288Z" fill="#1E293B"/>
</svg>
