<svg width="78" height="42" viewBox="0 0 78 42" fill="none" xmlns="http://www.w3.org/2000/svg">
<g clip-path="url(#clip0_104_12883)">
<path d="M0 31.9495C0 31.9115 0.169558 31.14 0.363338 30.2293C0.569229 29.3187 1.19902 26.2831 1.75613 23.4878C2.32536 20.6926 2.84615 18.1376 2.91881 17.8088L3.05204 17.2017H8.12666C11.9538 17.2017 13.2013 17.2396 13.2013 17.3534C13.2013 17.4293 13.1165 17.8467 13.0075 18.2641C12.9106 18.6941 12.7774 19.2127 12.7289 19.4151L12.6442 19.7945L9.02289 19.8578L5.40162 19.921L5.12306 21.2491C4.97773 21.9827 4.84451 22.7036 4.84451 22.8681V23.1463H7.93288C9.62845 23.1463 11.0212 23.1843 11.0212 23.2349C11.0212 23.5764 10.6095 25.5115 10.5247 25.6127C10.452 25.6886 9.22878 25.7392 7.36365 25.7392C4.78395 25.7392 4.31161 25.7645 4.22683 25.9289C4.17839 26.0301 3.8756 27.4467 3.56071 29.0657L2.97937 32.0001H1.48969C0.666119 32.0001 0 31.9748 0 31.9495Z" fill="#0E295D"/>
<path d="M12.1113 31.8989C12.1113 31.8483 12.2203 31.2665 12.3657 30.6088C12.62 29.4072 13.3346 25.8657 13.8675 23.1463C14.0249 22.3495 14.3277 20.8696 14.5336 19.8578C14.7395 18.8459 14.9454 17.8341 14.9817 17.6191L15.0544 17.2017H20.3712C25.3853 17.2017 25.6881 17.2143 25.6275 17.4293C25.5912 17.5432 25.4822 18.0617 25.3732 18.5803C25.2763 19.0989 25.1309 19.5922 25.0583 19.6934C24.9493 19.8198 24.1378 19.8578 21.1827 19.8578C19.1237 19.8578 17.4403 19.8704 17.4403 19.8957C17.4403 19.9337 17.0043 22.0839 16.8953 22.6151L16.8347 22.8934H20.2622C22.1516 22.8934 23.726 22.9187 23.7624 22.9566C23.7866 22.9945 23.7018 23.5764 23.5686 24.2594L23.3142 25.4862L19.802 25.5495L16.3018 25.6127L15.9506 27.2949C15.7568 28.2183 15.6357 29.053 15.672 29.1542C15.7326 29.3187 16.2776 29.344 19.5598 29.3187C21.655 29.306 23.4111 29.3313 23.4475 29.3819C23.4959 29.4198 23.399 30.027 23.2537 30.7353L22.9751 32.0001H17.5372C14.5578 32.0001 12.1113 31.9495 12.1113 31.8989Z" fill="#0E295D"/>
<path d="M28.3888 31.7851C28.4735 31.4689 30.7626 20.0096 30.7626 19.8957C30.7626 19.8704 29.7816 19.8578 28.5704 19.8578C26.8628 19.8578 26.3904 19.8198 26.4389 19.706C26.4631 19.6175 26.5842 19.0104 26.7053 18.3779L26.9233 17.2017H33.6329H40.3305L40.2699 17.4926C40.2457 17.6443 40.1367 18.1629 40.0277 18.6309C39.7491 19.9463 39.6644 19.8578 41.1662 19.8578H42.4984L42.6801 18.9471C42.777 18.4412 42.8981 17.8341 42.9344 17.6191L43.0192 17.2017H50.5161H58.025L57.9887 18.4032L57.9524 19.6048H59.1393H60.3141V18.4032V17.2017H61.5252H62.7484L62.7121 18.4412L62.6758 19.6681L61.501 19.706L60.3141 19.744V20.9329V22.1345H61.3799C61.9612 22.1345 62.4941 22.1851 62.5789 22.2357C62.6879 22.3115 62.7242 22.9187 62.7242 24.4111C62.7242 25.5621 62.7242 26.6246 62.7242 26.7764C62.7363 27.0546 62.7484 27.0673 65.0738 27.0926L67.3992 27.1305L67.4355 29.5716L67.4597 32.0001H60.3867H53.3138L53.4228 31.5321C53.4833 31.2665 53.7013 30.2293 53.9072 29.2175C54.1131 28.2056 54.4522 26.6499 54.646 25.7392C54.973 24.2467 55.1062 22.8681 54.973 22.4001C54.9488 22.2862 55.0457 22.1851 55.2273 22.1345C55.518 22.0586 55.5301 22.0206 55.5664 20.8949L55.6028 19.7187L54.4159 19.7566L53.229 19.7945L53.1926 20.3384L53.1563 20.8696L52.2237 20.857C50.9278 20.8443 50.1648 21.1226 49.0021 22.0586L48.5298 22.438L48.6146 21.7803L48.6994 21.1226H47.3792H46.0591L45.8653 22.1092C45.7563 22.6404 45.5625 23.5637 45.4414 24.1582C45.3082 24.7526 44.8964 26.7511 44.5089 28.623L43.7943 32.0001H41.9413C40.9239 32.0001 40.0883 31.9748 40.0883 31.9495C40.0883 31.8357 41.481 24.8791 41.6506 24.1582C41.9534 22.8807 42.2319 21.2617 42.1714 21.1985C42.1351 21.1479 41.5416 21.1226 40.8513 21.1226C39.6644 21.1226 39.5917 21.1353 39.4827 21.4135C39.4221 21.5653 39.0103 23.4878 38.5743 25.676C38.1383 27.8641 37.6902 30.0902 37.5933 30.6088C37.4843 31.1274 37.3753 31.6586 37.339 31.7851C37.2905 31.9621 37.1452 32.0001 36.4428 32.0001C35.9099 32.0001 35.6071 31.9495 35.6071 31.861C35.6071 31.7851 35.6798 31.393 35.7766 31.0009C35.8614 30.6088 36.031 29.8372 36.14 29.2807C36.3943 28.0159 37.339 23.3108 37.7387 21.3882C37.8961 20.604 38.0293 19.9337 38.0293 19.9084C38.0293 19.8831 37.0847 19.8578 35.922 19.8578C34.3475 19.8578 33.8025 19.8957 33.7662 20.0222C33.7298 20.0981 33.1727 22.8301 32.5187 26.0934L31.3197 32.0001H29.8179C28.4493 32.0001 28.3282 31.9748 28.3888 31.7851ZM57.8918 28.3321V27.0673H56.7412H55.5907V28.2436C55.5907 28.9013 55.627 29.4704 55.6755 29.5084C55.7118 29.559 56.2326 29.5969 56.826 29.5969H57.8918V28.3321ZM62.6152 28.3194V27.0546L61.501 27.0926L60.3746 27.1305L60.3383 28.193C60.3141 28.7748 60.3262 29.3313 60.3625 29.4325C60.411 29.5463 60.7137 29.5969 61.5252 29.5843L62.6152 29.5716V28.3194ZM60.2898 23.374L60.2535 22.1977L59.1393 22.1598L58.0129 22.1218V23.336V24.5376H59.1635H60.3262L60.2898 23.374Z" fill="#0E295D"/>
<path d="M46.6527 31.6585C47.0039 29.5083 47.9123 25.3597 48.1545 24.8158C48.6389 23.7786 49.4746 23.2727 50.71 23.2727C51.6304 23.2727 52.0785 23.6901 52.0785 24.5375C52.0785 24.7399 51.8605 26.0047 51.582 27.3454C51.3155 28.6861 51.0733 29.9004 51.037 30.0395C51.0127 30.1786 50.928 30.6593 50.8311 31.1146L50.6736 31.9367L48.6389 31.9747L46.6042 32L46.6527 31.6585Z" fill="#0E295D"/>
<path d="M69.5549 27.4593C69.0099 27.2695 68.5255 27.0925 68.5013 27.0545C68.4286 26.9786 69.0221 24.917 69.1432 24.7652C69.2764 24.6134 71.4806 25.4229 71.4201 25.6C71.3959 25.6759 71.2142 26.2071 71.0325 26.7889C70.8508 27.3581 70.6692 27.8261 70.6207 27.8134C70.5844 27.8134 70.0999 27.649 69.5549 27.4593Z" fill="#0E295D"/>
<path d="M63.7053 24.9928V23.7912L64.8438 23.7533L65.9944 23.7153L66.0307 24.5375C66.0549 24.9928 66.0549 25.5493 66.0307 25.777L65.9944 26.1817H64.8438H63.7053V24.9928Z" fill="#0E295D"/>
<path d="M71.8561 23.0198C71.2989 22.7542 70.8508 22.5012 70.8508 22.4759C70.8508 22.4253 71.8197 20.3257 71.8682 20.2625C71.8924 20.2498 72.3769 20.4649 72.9582 20.7431C73.6122 21.0593 73.9998 21.3249 73.9755 21.4261C73.8786 21.8562 73.0793 23.5257 72.9703 23.5257C72.9097 23.5257 72.4011 23.2981 71.8561 23.0198Z" fill="#0E295D"/>
<path d="M67.702 22.4379C67.266 22.1217 66.8421 21.8182 66.7452 21.7676C66.6241 21.6917 66.7331 21.4261 67.2297 20.6419C67.593 20.0727 67.9442 19.63 68.0169 19.6553C68.2833 19.7565 69.882 20.8822 69.882 20.9834C69.882 21.1352 68.683 23.0198 68.574 23.0071C68.5256 23.0071 68.138 22.7541 67.702 22.4379Z" fill="#0E295D"/>
<path d="M63.9475 21.4767C63.3783 21.2616 62.8938 21.0719 62.8696 21.0466C62.809 20.996 63.4752 18.9344 63.5963 18.7952C63.6447 18.732 64.1655 18.8585 64.7953 19.0988C65.6794 19.4276 65.8853 19.5541 65.8126 19.7186C65.7763 19.8324 65.6068 20.313 65.4493 20.8063C65.2919 21.2869 65.1102 21.717 65.0617 21.7676C65.0133 21.8182 64.5167 21.679 63.9475 21.4767Z" fill="#0E295D"/>
<path d="M71.093 18.5676C70.5238 18.3653 70.0514 18.1755 70.0272 18.1502C70.003 18.1249 70.7297 15.9242 70.8023 15.823C70.8265 15.7977 71.3594 15.9747 71.9892 16.2024L73.1277 16.6198L72.7401 17.7581C72.5221 18.3906 72.292 18.9091 72.2315 18.9218C72.1709 18.9471 71.6622 18.7827 71.093 18.5676Z" fill="#0E295D"/>
<path d="M66.5756 17.7454C65.6915 17.5684 65.6309 17.5304 65.6915 17.2774C65.7278 17.1383 65.8247 16.5691 65.9095 16.0253C66.0185 15.2411 66.0912 15.064 66.2365 15.1019C66.3455 15.1399 66.8542 15.2284 67.375 15.317C67.8957 15.3929 68.3439 15.5067 68.3802 15.5699C68.4044 15.6205 68.3439 16.1897 68.2349 16.8221C68.0047 18.1249 68.1259 18.0616 66.5756 17.7454Z" fill="#0E295D"/>
<path d="M75.6712 15.9747C75.211 15.5953 74.8477 15.2032 74.8477 15.1147C74.8477 15.0261 75.1625 14.5581 75.5501 14.0649L76.2526 13.1921L77.1851 14.0016L78.1177 14.8238L77.3789 15.7218C76.9671 16.2277 76.5917 16.6451 76.5553 16.6578C76.519 16.6704 76.1193 16.3668 75.6712 15.9747Z" fill="#0E295D"/>
<path d="M58.2551 15.8736C57.7586 15.5701 57.3347 15.2792 57.3226 15.2159C57.2983 15.14 57.5284 14.6215 57.8312 14.0523L58.4005 13.0151L59.0787 13.4325C59.4541 13.6602 59.9144 13.9258 60.096 14.0396C60.2898 14.1408 60.4351 14.2926 60.423 14.3558C60.423 14.5582 59.3936 16.3669 59.2725 16.3922C59.2119 16.4049 58.7517 16.1772 58.2551 15.8736Z" fill="#0E295D"/>
<path d="M63.0632 14.5835C62.2881 14.4317 62.1307 14.3558 62.1791 14.1914C62.2033 14.0649 62.3002 13.5463 62.3729 13.0277C62.4577 12.5091 62.5424 12.0412 62.5667 12.0032C62.5788 11.9653 63.1117 12.0285 63.7294 12.1423L64.8557 12.3447L64.8315 12.7115C64.8194 12.9265 64.7467 13.4704 64.6619 13.951C64.5166 14.925 64.6014 14.887 63.0632 14.5835Z" fill="#0E295D"/>
<path d="M71.8804 12.3193C71.6503 11.788 71.4565 11.2821 71.4565 11.1936C71.4565 11.0418 73.467 10.0299 73.5639 10.1311C73.7335 10.3335 74.4601 12.1801 74.4117 12.3066C74.3632 12.4584 72.6919 13.2805 72.4376 13.2805C72.3649 13.2805 72.1227 12.8505 71.8804 12.3193Z" fill="#0E295D"/>
<path d="M67.4233 11.4086C66.9752 11.143 66.5391 10.8521 66.4665 10.7762C66.3696 10.675 66.4907 10.3462 66.9146 9.57461L67.4838 8.49951L68.477 9.09398C69.131 9.49872 69.458 9.76433 69.4459 9.90346C69.4216 10.1564 68.4406 11.8892 68.3195 11.8892C68.2832 11.8892 67.8714 11.6616 67.4233 11.4086Z" fill="#0E295D"/>
<path d="M73.8182 7.32328C73.2853 7.10826 72.813 6.89324 72.7524 6.84264C72.6797 6.76675 73.3095 4.71774 73.467 4.56596C73.5275 4.50272 75.4653 5.17308 75.6106 5.31221C75.7075 5.40075 74.9688 7.72802 74.8476 7.70272C74.8113 7.70272 74.3511 7.52565 73.8182 7.32328Z" fill="#0E295D"/>
<path d="M67.8715 2.64348C67.4719 2.16285 67.157 1.70751 67.157 1.64427C67.157 1.58103 67.5445 1.18893 68.029 0.771542L68.8889 0L69.6277 0.910672C70.0395 1.4166 70.3665 1.85929 70.3665 1.90988C70.3665 1.98577 69.3612 2.92174 68.7799 3.38972C68.6103 3.51621 68.4771 3.41502 67.8715 2.64348Z" fill="#0E295D"/>
</g>
<defs>
<clipPath id="clip0_104_12883">
<rect width="78" height="42" fill="white"/>
</clipPath>
</defs>
</svg>
