<svg width="800" height="1024" viewBox="0 0 800 1024" fill="none" xmlns="http://www.w3.org/2000/svg">
<g clip-path="url(#clip0_29_17751)">
<rect width="800" height="1024" fill="#0159EA"/>
<g clip-path="url(#clip1_29_17751)">
<mask id="mask0_29_17751" style="mask-type:luminance" maskUnits="userSpaceOnUse" x="-142" y="135" width="1466" height="965">
<path d="M1324 135H-142V1100H1324V135Z" fill="white"/>
</mask>
<g mask="url(#mask0_29_17751)">
<path opacity="0.1" d="M279.888 158.534H244.029C242.28 158.534 240.861 160.12 240.861 162.075V202.171C240.861 204.127 242.28 205.712 244.029 205.712H279.888C281.636 205.712 283.054 204.127 283.054 202.171V162.075C283.054 160.12 281.636 158.534 279.888 158.534Z" fill="#4C9AFF"/>
<path opacity="0.05" d="M224.152 168.468H202.991C202.093 168.468 201.366 169.281 201.366 170.284V193.945C201.366 194.948 202.093 195.761 202.991 195.761H224.152C225.048 195.761 225.775 194.948 225.775 193.945V170.284C225.775 169.281 225.048 168.468 224.152 168.468Z" fill="#4C9AFF"/>
<path opacity="0.05" d="M735.326 168.468H757.9V192.075C757.9 194.072 756.439 195.707 754.652 195.707H735.326C734.32 195.707 733.491 194.781 733.491 193.655V170.52C733.491 169.394 734.32 168.468 735.326 168.468Z" fill="#4C9AFF"/>
<path opacity="0.1" d="M718.437 162.148H682.578C680.829 162.148 679.412 163.734 679.412 165.69V205.785C679.412 207.741 680.829 209.326 682.578 209.326H718.437C720.185 209.326 721.603 207.741 721.603 205.785V165.69C721.603 163.734 720.185 162.148 718.437 162.148Z" fill="#4C9AFF"/>
<path opacity="0.2" d="M362.599 144.334H304.036C301.175 144.334 298.856 146.927 298.856 150.127V215.609C298.856 218.808 301.175 221.402 304.036 221.402H362.599C365.459 221.402 367.779 218.808 367.779 215.609V150.127C367.779 146.927 365.459 144.334 362.599 144.334Z" fill="#4C9AFF"/>
<path fill-rule="evenodd" clip-rule="evenodd" d="M325.62 180.071H333.317C334.617 180.071 338.45 180.071 338.45 175.695C338.45 171.318 333.317 171.318 333.317 171.318H325.62V180.071ZM325.62 194.344H334.601C337.167 194.344 339.732 193.618 339.732 190.041C339.732 186.463 336.907 185.737 334.601 185.737H325.62V194.344ZM320.487 167.105C320.487 166.307 321.057 165.671 321.771 165.671H335.461C338.222 165.671 343.581 167.105 343.581 174.278C343.581 180.017 341.016 181.451 341.016 181.451C344.312 182.65 346.423 186.209 346.147 190.059C346.147 191.493 346.147 200.101 335.883 200.101H321.754C321.057 200.083 320.505 199.447 320.487 198.666V167.105Z" fill="#4C9AFF"/>
<path d="M466.211 135H393.487C389.926 135 387.039 138.228 387.039 142.209V223.526C387.039 227.508 389.926 230.736 393.487 230.736H466.211C469.771 230.736 472.657 227.508 472.657 223.526V142.209C472.657 138.228 469.771 135 466.211 135Z" fill="#4C9AFF"/>
<path fill-rule="evenodd" clip-rule="evenodd" d="M436.232 168.613L429.848 197.123H437.773C438.668 197.123 439.398 197.94 439.398 198.939V202.462C439.398 203.461 438.668 204.278 437.773 204.278H415.508C414.615 204.278 413.884 203.461 413.884 202.462V198.921C413.884 197.922 414.615 197.105 415.508 197.105H423.482L429.848 168.595H421.89C420.997 168.595 420.267 167.778 420.267 166.779V163.293C420.267 162.294 420.997 161.477 421.89 161.477H444.27C445.163 161.477 445.894 162.294 445.894 163.293V166.815C445.894 167.814 445.163 168.631 444.27 168.631H436.232V168.613Z" fill="#DEEBFF"/>
<path opacity="0.2" d="M570.668 135H497.944C494.384 135 491.496 138.228 491.496 142.209V223.526C491.496 227.508 494.384 230.736 497.944 230.736H570.668C574.228 230.736 577.114 227.508 577.114 223.526V142.209C577.114 138.228 574.228 135 570.668 135Z" fill="#4C9AFF"/>
<path fill-rule="evenodd" clip-rule="evenodd" d="M539.097 181.088L534.305 165.053C532.958 170.029 529.532 181.088 529.532 181.088H539.097ZM540.72 186.427H527.972L524.724 195.343H518.342L530.505 159.696H538.058L550.205 195.343H543.839L540.72 186.427ZM515.224 200.7C515.224 199.701 515.955 198.884 516.848 198.884H551.894C552.787 198.884 553.518 199.701 553.518 200.7V204.223C553.518 205.221 552.787 206.038 551.894 206.038H516.782C515.889 206.038 515.159 205.221 515.159 204.223L515.224 200.7Z" fill="#4C9AFF"/>
<path opacity="0.2" d="M660.621 144.334H602.059C599.198 144.334 596.878 146.927 596.878 150.127V215.609C596.878 218.808 599.198 221.402 602.059 221.402H660.621C663.482 221.402 665.802 218.808 665.802 215.609V150.127C665.802 146.927 663.482 144.334 660.621 144.334Z" fill="#4C9AFF"/>
<path fill-rule="evenodd" clip-rule="evenodd" d="M621.076 171.318V179.926H628.774V171.318H621.076ZM633.906 185.664V194.272H641.588V185.737L633.906 185.664ZM633.906 171.318V179.926H641.588V171.318H633.906ZM621.076 185.664V194.272H628.774V185.737L621.076 185.664ZM615.945 171.337C615.945 168.159 618.251 165.58 621.094 165.58H641.572C644.413 165.58 646.703 168.159 646.72 171.337V194.308C646.72 197.486 644.43 200.064 641.588 200.083C641.588 200.083 641.588 200.083 641.572 200.083H621.094C618.251 200.083 615.945 197.486 615.945 194.308V171.337Z" fill="#4C9AFF"/>
<path d="M54.3924 779H-0.547931C-2.34166 779 -3.7959 780.625 -3.7959 782.63V1018.57C-3.7959 1020.58 -2.34166 1022.21 -0.547931 1022.21H54.3924C56.1864 1022.21 57.6399 1020.58 57.6399 1018.57V782.63C57.6399 780.625 56.1864 779 54.3924 779Z" fill="#4C9AFF"/>
<path d="M134.667 675.328H79.727C77.9329 675.328 76.4795 676.954 76.4795 678.961V1018.57C76.4795 1020.58 77.9329 1022.21 79.727 1022.21H134.667C136.461 1022.21 137.915 1020.58 137.915 1018.57V678.961C137.915 676.954 136.461 675.328 134.667 675.328Z" fill="#505F79"/>
<path d="M-136.998 1020.59H1319" stroke="url(#paint0_linear_29_17751)" stroke-width="4" stroke-miterlimit="10"/>
<path d="M137.915 1023.37H-142C-134.318 1010.55 -121.992 994.731 -103.332 987.92C-82.8533 980.457 -74.7332 991.098 -52.6303 984.724C-22.7809 976.099 -23.5604 952.619 1.90408 947.154C30.5187 941.033 39.0133 969.071 64.2178 960.881C81.4316 955.288 83.0891 940.38 118.071 914.068C126.352 907.839 133.417 903.299 137.915 900.521V1023.37Z" fill="url(#paint1_linear_29_17751)"/>
<path d="M1044.18 281.164H137.915V1020.59H1044.18V281.164Z" fill="url(#paint2_linear_29_17751)"/>
<path d="M1044.09 281.164H137.915V351.985H1044.09V281.164Z" fill="#DEEBFF"/>
<path d="M177.801 337.185C187.982 337.185 196.233 327.956 196.233 316.574C196.233 305.191 187.982 295.963 177.801 295.963C167.621 295.963 159.368 305.191 159.368 316.574C159.368 327.956 167.621 337.185 177.801 337.185Z" fill="#B2D4FF"/>
<path d="M215.949 316.32H366.773" stroke="#B2D4FF" stroke-width="6" stroke-miterlimit="10"/>
<path opacity="0.6" d="M979.222 302.955H777.712C775.955 302.955 774.529 304.549 774.529 306.514V326.635C774.529 328.6 775.955 330.194 777.712 330.194H979.222C980.979 330.194 982.405 328.6 982.405 326.635V306.514C982.405 304.549 980.979 302.955 979.222 302.955Z" fill="white"/>
<path d="M786.937 451.116H385.269V462.175H786.937V451.116Z" fill="#B2D4FF"/>
<path d="M540.103 395.747H450.977V406.806H540.103V395.747Z" fill="#B2D4FF"/>
<path d="M786.937 482.187H385.269V493.246H786.937V482.187Z" fill="#B2D4FF"/>
<path d="M786.937 513.274H385.269V524.333H786.937V513.274Z" fill="#B2D4FF"/>
<path d="M786.937 544.346H385.269V555.405H786.937V544.346Z" fill="#B2D4FF"/>
<path d="M642.189 575.416H385.269V586.475H642.189V575.416Z" fill="#B2D4FF"/>
<path d="M582.036 860.08L506.47 775.566L430.888 860.08H582.036Z" fill="url(#paint3_linear_29_17751)"/>
<path d="M756.845 871.629L634.086 734.364L511.342 871.629H756.845Z" fill="url(#paint4_linear_29_17751)"/>
<path d="M1044.18 1024.24H137.98V910.398C231.214 806.764 323.329 853.124 385.042 861.078C425.415 866.29 455.589 851.998 475.76 844.609C541.499 820.51 568.328 865.564 659.11 868.015C754.782 870.611 766.296 821.092 851.979 820.202C899.611 819.711 965.027 833.803 1043.89 897.161C1043.94 938.346 1044.07 979.404 1044.18 1024.24Z" fill="url(#paint5_linear_29_17751)"/>
<path opacity="0.1" d="M777.712 1022.21H382.558C380.77 1022.21 379.309 1020.57 379.309 1018.57V626.19C379.309 624.192 380.77 622.558 382.558 622.558H777.712C779.5 622.558 780.961 624.192 780.961 626.19V1018.57C780.961 1020.57 779.5 1022.21 777.712 1022.21ZM768.456 1008.22V636.54H391.798V1008.22H768.456Z" fill="url(#paint6_linear_29_17751)"/>
<path d="M823.673 920.987H427.007C425.577 920.931 424.375 919.77 424.149 918.19L385.626 617.455C385.416 616.166 386.194 614.93 387.348 614.694C387.494 614.659 387.624 614.659 387.77 614.659H784.436C785.866 614.713 787.067 615.874 787.294 617.455L825.815 918.19C826.027 919.479 825.247 920.714 824.095 920.95C823.949 920.987 823.819 920.987 823.673 920.987ZM811.882 907.003L776.153 628.641H399.561L435.208 907.003H811.882Z" fill="white"/>
<path d="M503.742 721.961C517.052 721.961 527.843 709.895 527.843 695.013C527.843 680.129 517.052 668.064 503.742 668.064C490.432 668.064 479.641 680.129 479.641 695.013C479.641 709.895 490.432 721.961 503.742 721.961Z" fill="#FFAB00"/>
<path d="M409.37 428.236C422.68 428.236 433.471 416.17 433.471 401.287C433.471 386.403 422.68 374.339 409.37 374.339C396.06 374.339 385.269 386.403 385.269 401.287C385.269 416.17 396.06 428.236 409.37 428.236Z" fill="#B2D4FF"/>
<path d="M137.915 450.389C133.352 449.462 128.708 448.99 124.063 448.99L35.5867 449.118C-7.36932 449.172 -42.1394 488.143 -42.0908 536.174C-42.0421 584.186 -7.17439 623.066 35.764 623.01C47.7667 623.01 58.9391 629.856 65.387 641.17L70.8429 650.757L76.2831 641.151C82.731 629.839 93.8876 622.993 105.873 622.993H124.338C128.918 622.975 133.482 622.503 137.996 621.613L137.915 450.389Z" fill="#FFC400"/>
<path d="M201.918 535.847C201.87 493.808 174.928 457.817 137.915 450.389V621.522C174.992 614.058 201.951 577.975 201.918 535.847Z" fill="#FF991F"/>
<path opacity="0.6" d="M673.549 443.943H449.612V468.657H673.549V443.943Z" fill="#FFC400"/>
<path d="M673.581 446.795L671.956 449.046L681.896 458.343L684.186 455.293C688.066 450.081 693.475 446.576 699.435 445.379L700.182 445.234C706.142 444.017 711.533 440.512 715.432 435.318L865.118 235.294C872.166 225.924 871.078 211.923 862.682 204.06C862.665 204.06 862.649 204.024 862.633 204.005C854.236 196.161 841.748 197.395 834.715 206.784L685.566 405.99C681.311 411.675 679.167 418.974 679.573 426.365C679.98 433.774 677.836 441.092 673.581 446.795Z" fill="#FFAB00"/>
<path d="M704 381.438C714.312 378.351 728.36 375.101 739.013 372.614C750.154 370.035 759.59 367.783 767.498 365.677L779.143 350.132C767.255 354.091 749.325 358.249 736.919 361.137C728.798 362.953 721.572 364.768 715.384 366.276L704 381.438Z" fill="#FFE380"/>
<path d="M822.292 292.495C766.377 308.058 755.026 317.646 755.837 327.651C756.569 336.622 767.109 339.619 778.25 342.797C779.759 343.215 781.627 343.758 783.478 344.321L790.803 334.553C787.815 333.407 784.421 332.427 780.832 331.411C776.804 330.266 769.772 328.27 766.978 326.471C769.35 323.965 778.168 317.918 810.665 308.021L822.292 292.495Z" fill="#FFE380"/>
<path d="M746.499 393.715C721.83 391.173 707.897 388.703 700.052 386.724L692.615 396.639C700.962 399.4 714.962 402.087 738.331 404.629L746.499 393.715Z" fill="#FFE380"/>
<path d="M667.783 462.665L673.256 464.735C674.02 465.027 674.848 464.735 675.351 464.063L680.533 457.144L673.451 450.517L666.956 459.233C666.273 460.14 666.37 461.502 667.183 462.284C667.361 462.446 667.573 462.574 667.783 462.665Z" fill="#FF8B00"/>
<path d="M103.015 371.306C103.015 350.242 87.7496 333.171 68.9113 333.171H30.0968C11.2589 333.171 -4.00684 350.242 -4.00684 371.306C-4.00684 392.372 11.2589 409.441 30.0968 409.441C35.3597 409.441 40.2631 412.437 43.0899 417.393L45.4773 421.607L47.8646 417.393C50.6899 412.418 55.5776 409.387 60.8561 409.387H68.9757C87.7668 409.35 102.984 392.316 103.015 371.306Z" fill="#4C9AFF"/>
<g opacity="0.1">
<path d="M953.854 427.927H759.621C756.931 427.927 754.749 430.365 754.749 433.374V598.206C754.749 601.214 756.931 603.653 759.621 603.653H953.854C956.545 603.653 958.726 601.214 958.726 598.206V433.374C958.726 430.365 956.545 427.927 953.854 427.927Z" fill="#172B4D"/>
</g>
<path d="M961.617 418.411H767.385C764.694 418.411 762.513 420.85 762.513 423.858V588.69C762.513 591.699 764.694 594.139 767.385 594.139H961.617C964.307 594.139 966.489 591.699 966.489 588.69V423.858C966.489 420.85 964.307 418.411 961.617 418.411Z" fill="url(#paint7_linear_29_17751)"/>
<mask id="mask1_29_17751" style="mask-type:luminance" maskUnits="userSpaceOnUse" x="762" y="418" width="205" height="177">
<path d="M961.617 418.411H767.385C764.694 418.411 762.513 420.85 762.513 423.858V588.69C762.513 591.699 764.694 594.139 767.385 594.139H961.617C964.307 594.139 966.489 591.699 966.489 588.69V423.858C966.489 420.85 964.307 418.411 961.617 418.411Z" fill="white"/>
</mask>
<g mask="url(#mask1_29_17751)">
<path d="M773.718 399.253H762.513V608.574H773.718V399.253Z" fill="#FFAB00"/>
</g>
<path d="M790.414 559.654H886.475" stroke="#B2D4FF" stroke-width="7" stroke-miterlimit="10"/>
<path d="M790.414 528.184H948.967" stroke="#B2D4FF" stroke-width="7" stroke-miterlimit="10"/>
<path d="M823.754 435.19H797.413C793.825 435.19 790.916 438.442 790.916 442.454V471.908C790.916 475.92 793.825 479.171 797.413 479.171H823.754C827.342 479.171 830.25 475.92 830.25 471.908V442.454C830.25 438.442 827.342 435.19 823.754 435.19Z" fill="#B2D4FF"/>
<path d="M230.582 888.174C216.306 904.643 199.254 917.79 180.416 926.87C194.48 883.197 224.28 848.114 262.575 830.155C255.428 851.654 244.564 871.375 230.582 888.174Z" fill="url(#paint8_linear_29_17751)"/>
<path d="M133.385 892.058C150.371 899.34 165.898 910.31 179.084 924.328C142.334 926.742 106.362 911.816 79.9375 883.16C98.1103 882.162 116.267 885.176 133.385 892.058Z" fill="url(#paint9_linear_29_17751)"/>
<path d="M144.525 867.108C160.473 883.614 173.336 903.498 182.382 925.579C140.676 909.963 106.735 875.515 88.8213 830.607C109.366 838.542 128.286 850.946 144.525 867.108Z" fill="url(#paint10_linear_29_17751)"/>
<path d="M179.555 850.582C183.129 875.969 182.203 901.883 176.794 926.852C151.282 883.361 143.226 829.899 154.611 779.471C167.034 801.098 175.511 825.268 179.555 850.582Z" fill="url(#paint11_linear_29_17751)"/>
<path d="M217.688 872.956C208.56 893.494 195.892 911.816 180.416 926.87C181.942 880.473 200.781 836.927 232.384 806.818C231.426 829.735 226.424 852.2 217.688 872.956Z" fill="url(#paint12_linear_29_17751)"/>
<path d="M163.478 857.974C173.124 879.475 178.874 902.881 180.417 926.87C146.605 896.235 125.833 851.128 123.169 802.553C139.734 817.879 153.442 836.709 163.478 857.974Z" fill="url(#paint13_linear_29_17751)"/>
<path d="M239.433 906.568C222.023 918.716 202.649 926.889 182.414 930.629C205.459 892.023 241.95 866 282.973 858.9C271.41 877.84 256.615 894.039 239.433 906.568Z" fill="url(#paint14_linear_29_17751)"/>
<path d="M203.2 856.902C199.823 881.67 192.092 905.46 180.465 926.87C168.285 878.003 174.976 825.669 198.93 782.595C204.71 806.801 206.173 832.06 203.2 856.902Z" fill="url(#paint15_linear_29_17751)"/>
<path d="M217.931 1024.24H133.043L109.869 912.905H241.106L217.931 1024.24Z" fill="white"/>
<path d="M632.852 303.209H532.779C530.814 303.209 529.223 304.99 529.223 307.186V325.926C529.223 328.122 530.814 329.903 532.779 329.903H632.852C634.815 329.903 636.407 328.122 636.407 325.926V307.186C636.407 304.99 634.815 303.209 632.852 303.209Z" fill="#0065FF"/>
<path d="M330.628 302.475C329.418 299.477 326.266 298.141 323.589 299.492C320.911 300.842 319.721 304.368 320.931 307.366L328.017 324.93C329.227 327.928 332.377 329.263 335.055 327.914C337.732 326.563 338.922 323.036 337.714 320.038L330.628 302.475Z" fill="#E38651"/>
<path d="M350.207 326.199L345.821 325.491L340.593 320.624C338.595 319.189 336.402 319.298 334.503 320.878L333.869 321.404L326.512 320.514C325.602 320.479 324.839 321.259 324.806 322.276L324.531 330.376L354.462 331.629C354.429 328.904 352.625 326.598 350.207 326.199Z" fill="#42526E"/>
<path d="M307.325 330.512C307.482 327.227 305.233 324.422 302.299 324.245C299.367 324.068 296.861 326.589 296.702 329.874L295.776 349.113C295.619 352.398 297.869 355.204 300.802 355.38C303.734 355.557 306.241 353.036 306.399 349.751L307.325 330.512Z" fill="#E38651"/>
<path d="M318.442 354.001L314.072 353.274L308.859 348.389C306.861 346.954 304.67 347.045 302.754 348.608L302.119 349.116L294.763 348.19C293.854 348.153 293.09 348.935 293.058 349.95L292.765 358.05L322.68 359.431C322.647 356.707 320.86 354.399 318.442 353.982V354.001Z" fill="#42526E"/>
<path d="M251.596 243.048C244.045 242.849 237.858 249.713 237.972 258.157C238.101 266.565 244.419 274.664 251.939 274.246L308.292 269.815C314.528 269.615 319.481 263.841 319.384 256.85C319.287 249.858 314.17 244.265 307.934 244.283L251.614 243.03L251.596 243.048Z" fill="#0065FF"/>
<path d="M249.031 210.724C236.429 207.601 226.537 238.454 229.868 263.005C230.5 267.672 232.985 271.612 234.999 275.371C236.672 278.495 263.55 284.178 269.152 273.755C273.521 265.656 275.436 255.578 272.595 246.498C265.709 224.544 260.643 213.594 249.031 210.706V210.724Z" fill="url(#paint16_linear_29_17751)"/>
<path d="M249.761 239.398C241.852 238 233.228 254.634 232.302 263.532C231.378 272.394 237.013 281.873 244.955 282.617L304.686 286.776C311.262 287.539 317.175 282.254 317.954 274.9C318.734 267.545 314.041 260.881 307.495 259.918L249.761 239.416V239.398Z" fill="url(#paint17_linear_29_17751)"/>
<path d="M314.138 277.696C314.299 270.541 312.351 264.094 305.904 263.659C299.456 263.223 293.87 268.58 293.253 275.716L290.118 346.919L313.667 346.283L314.138 277.678V277.696Z" fill="url(#paint18_linear_29_17751)"/>
<path d="M318.767 252.109C316.006 245.735 309.169 242.902 303.322 245.808C297.475 248.695 298.076 253.998 300.431 260.571L320.113 326.744L340.917 309.529L318.749 252.109H318.767Z" fill="url(#paint19_linear_29_17751)"/>
<path d="M308.908 207.746C309.916 209.888 307.836 213.266 306.602 214.156L279.384 237.363C277.419 238.416 274.641 236.728 273.115 233.514C271.605 230.299 271.93 226.777 273.829 225.578L304.734 207.128C306.083 206.493 308.908 207.764 308.908 207.764V207.746Z" fill="#E38651"/>
<path d="M259.197 182.286C255.672 183.666 258.775 197.413 260.09 201.244L269.006 230.789L269.039 233.314C270.093 236.455 273.813 235.329 276.72 234.203C279.627 233.078 281.544 221.074 280.602 217.878L278.88 215.935C278.88 215.935 262.591 180.979 259.067 182.359L259.213 182.286H259.197Z" fill="#36B37E"/>
<path d="M264.492 180.416L271.491 197.994L269.868 200.264L257.785 194.144L254.715 180.416H264.492Z" fill="#DB8A66"/>
<path d="M265.467 186.5L253.709 186.373V161.712C253.709 158.081 256.34 155.139 259.587 155.139C262.835 155.139 265.467 158.081 265.467 161.712V186.5Z" fill="#DB8A66"/>
<path fill-rule="evenodd" clip-rule="evenodd" d="M301.29 210.488C301.29 210.488 302.217 205.003 306.991 204.168C306.991 204.168 309.752 203.533 310.515 203.587C311.279 203.641 314.43 201.844 315.128 203.079C315.826 204.313 312.48 205.458 310.11 206.166C310.11 206.166 309.931 207.001 310.743 206.947C311.556 206.892 316.508 207.146 316.508 207.146L320.097 206.347C320.584 206.238 321.072 206.602 321.154 207.146C321.251 207.673 320.942 208.2 320.471 208.327L317.303 209.162C317.303 209.162 319.837 209.017 320.243 210.578C320.243 210.578 320.016 211.359 318.57 211.432C317.126 211.504 314.819 211.886 314.819 211.886L313.731 213.248C313.731 213.248 311.085 213.702 310.207 213.502C310.207 213.502 308.015 214.21 306.684 214.083C306.684 214.083 304.604 216.208 301.73 213.575C298.854 210.923 301.275 210.542 301.275 210.542L301.29 210.488Z" fill="#E38651"/>
<path d="M276.574 204.477C276.152 202.08 265.416 180.307 265.416 180.307C263.727 182.922 271.117 197.032 268.924 196.959C264.394 196.796 254.422 180.761 253.253 178.146C252.245 177.892 234.512 176.73 231.378 205.93C230.858 210.706 229.672 220.149 229.494 223.272L245.068 229.01C251.889 231.516 259.261 231.516 266.083 228.974C266.846 225.469 268.079 223.036 269.737 220.239C271.93 216.535 277.726 210.796 276.59 204.459L276.574 204.477Z" fill="#57D9A3"/>
<path d="M266.457 146.404C266.457 146.404 272.547 148.492 272.676 154.884C272.676 154.884 272.969 156.265 273.699 157.318C274.431 158.371 273.343 160.822 273.343 160.822C273.343 160.822 275.958 163.655 274.041 167.759C272.125 171.863 271.263 172.717 271.183 174.188C271.101 175.659 271.312 177.91 268.924 178.001C266.537 178.092 260.918 176.294 257.882 169.176C254.861 162.075 251.271 143.099 266.457 146.386V146.404Z" fill="#DB8A66"/>
<path d="M236.575 187.39L236.77 187.281C242.714 180.144 243.948 153.631 252.425 146.586C261.066 139.413 270.841 146.077 272.01 148.42C272.384 152.015 269.802 147.911 267.903 148.038C262.883 148.402 261.714 154.957 260.496 162.257C259.278 169.557 261.616 185.119 262.576 199.32C263.533 213.539 259.75 219.477 257.638 220.694C255.803 221.747 250.347 219.64 248.722 216.553C250.086 210.96 252.02 199.447 250.135 189.115C249.633 186.318 247.179 184.484 244.646 184.865C241.479 185.337 237.581 186.136 236.575 187.371V187.39Z" fill="#274364"/>
<path fill-rule="evenodd" clip-rule="evenodd" d="M264.101 246.407C264.101 246.135 265.075 239.652 267.966 240.741C270.19 241.577 271.311 242.666 271.653 244.046C271.864 244.936 272.286 245.753 272.951 246.316C273.813 247.061 274.788 248.114 274.463 248.949C273.893 250.384 270.305 248.114 270.305 248.114L275.144 252.254C275.144 252.254 277.045 252.545 278.604 251.619C280.082 250.729 280.602 250.729 280.602 250.729C280.602 250.729 281.674 251.619 280.699 252.418C279.724 253.217 278.279 254.397 278.279 254.397L280.942 253.671C281.316 253.562 281.722 253.743 281.917 254.107C282.225 254.669 281.999 255.396 281.429 255.614L280.829 255.832L282.242 256.395C282.695 256.576 282.94 257.157 282.761 257.666C282.615 258.065 282.258 258.32 281.868 258.283L275.111 257.521C274.804 257.484 274.512 257.357 274.267 257.139L272.156 255.251C271.93 255.051 271.669 254.924 271.377 254.906L270.564 254.833C270.175 254.797 269.817 254.597 269.542 254.288L263.517 247.388L264.085 246.389L264.101 246.407Z" fill="#E38651"/>
<path d="M235.941 227.303C233.619 226.504 231.004 226.667 229.917 230.263C228.827 233.858 229.802 237.49 232.092 238.434L264.231 248.113C266.587 249.003 268.307 249.748 269.397 246.098C270.5 242.448 269.819 242.448 267.089 241.358L235.925 227.303H235.941Z" fill="#E38651"/>
<path d="M244.661 186.01C240.651 184.829 236.737 186.881 235.989 190.549L228.699 223.508L227.432 225.415C226.798 228.393 230.874 229.901 234.155 230.863C237.451 231.825 242.015 232.987 242.778 230.028L242.161 227.522L250.232 194.744C251.191 191.149 248.673 187.208 244.661 186.028V186.01Z" fill="#57D9A3"/>
<path opacity="0.3" d="M301.827 265.274L303.792 329.831L313.813 325.618L313.943 305.987L301.827 265.274Z" fill="#253858"/>
<path d="M813.653 296.818C813.653 296.818 813.474 287.375 808.878 284.36C804.298 281.346 801.294 278.622 801.294 278.622C801.294 278.622 798.193 280.783 804.234 285.359C804.234 285.359 801.683 285.414 799.833 283.489C799.833 283.489 798.029 281.818 797.786 280.093C797.786 280.093 796.601 279.385 796.373 280.62C796.146 281.854 796.86 285.141 796.86 285.141L796.016 287.266L796.65 288.573L796.049 290.117L797.315 291.624L797.883 292.732C799.086 295.038 801.148 296.636 803.503 297.108L813.994 299.215L813.636 296.818H813.653Z" fill="#CE8655"/>
<path d="M407.957 754.666C410.15 752.886 412.715 750.544 412.115 749.726C411.287 748.582 402.76 756.173 402.922 755.5C403.085 754.829 410.831 749.091 409.337 748.327C407.843 747.565 400.357 754.484 400.357 754.484C401.624 750.979 399.122 749.109 399.122 749.109C398.879 748.056 397.418 754.774 397.418 754.774C394.672 757.879 394.219 763.346 394.219 763.346C394.283 767.722 398.83 770.064 401.852 767.304L403.702 765.615C404.953 765.089 409.549 759.605 410.652 758.334C411.757 757.063 410.491 756.517 410.491 756.517C404.953 761.129 405.051 760.64 405.051 760.64C405.051 760.64 412.781 753.72 412.195 752.486C411.919 751.923 409.808 753.285 407.973 754.629L407.957 754.666Z" fill="#91562D"/>
<path d="M400.043 766.602C401.463 765.014 401.466 762.441 400.048 760.855C398.63 759.271 396.331 759.273 394.909 760.862L384.54 772.458C383.119 774.045 383.116 776.619 384.534 778.204C385.951 779.788 388.252 779.786 389.673 778.197L400.043 766.602Z" fill="#91562D"/>
<path d="M334.146 819.113C336.095 822.762 340.349 823.888 343.549 821.618L372.521 800.936C375.152 799.083 375.998 795.233 374.406 792.237C372.814 789.24 369.371 788.242 366.674 789.968L336.646 808.652C333.334 810.724 332.214 815.444 334.162 819.094L334.146 819.113Z" fill="#FFC400"/>
<path d="M392.561 764.073C391.279 762.783 389.281 762.982 388.03 764.309L365.002 788.478C362.891 791.221 363.102 795.361 365.522 797.777C367.942 800.21 371.773 802.352 373.983 799.719L397.531 774.241C398.571 772.716 393.763 765.524 392.48 764.253L392.53 764.073H392.561Z" fill="#FFC400"/>
<path d="M337.037 825.232C339.297 825.232 341.129 823.183 341.129 820.655C341.129 818.129 339.297 816.08 337.037 816.08C334.777 816.08 332.943 818.129 332.943 820.655C332.943 823.183 334.777 825.232 337.037 825.232Z" fill="white"/>
<path d="M369.76 825.232C372.02 825.232 373.853 823.183 373.853 820.655C373.853 818.129 372.02 816.08 369.76 816.08C367.5 816.08 365.668 818.129 365.668 820.655C365.668 823.183 367.5 825.232 369.76 825.232Z" fill="white"/>
<path d="M368.526 900.212C372.347 900.212 375.445 896.749 375.445 892.476C375.445 888.203 372.347 884.74 368.526 884.74C364.706 884.74 361.607 888.203 361.607 892.476C361.607 896.749 364.706 900.212 368.526 900.212Z" fill="#FFC10E"/>
<path d="M346.456 900.212C350.276 900.212 353.375 896.749 353.375 892.476C353.375 888.203 350.276 884.74 346.456 884.74C342.636 884.74 339.537 888.203 339.537 892.476C339.537 896.749 342.636 900.212 346.456 900.212Z" fill="#FFC10E"/>
<path d="M350.808 996.656C350.808 993.647 348.627 991.208 345.936 991.208C343.245 991.208 341.064 993.647 341.064 996.656V1014.31C341.064 1017.31 343.245 1019.75 345.936 1019.75C348.627 1019.75 350.808 1017.31 350.808 1014.31V996.656Z" fill="#91562D"/>
<path d="M384.945 996.656C384.945 993.647 382.763 991.208 380.073 991.208C377.381 991.208 375.201 993.647 375.201 996.656V1014.31C375.201 1017.31 377.381 1019.75 380.073 1019.75C382.763 1019.75 384.945 1017.31 384.945 1014.31V996.656Z" fill="#91562D"/>
<path d="M337.572 867.671L335.103 887.572C334.926 888.988 334.926 890.441 335.251 891.822C336.451 896.943 340.87 903.462 346.131 903.462L363.183 903.535V867.671H337.572Z" fill="#2684FF"/>
<path d="M371.059 867.054L377.133 880.928C378.091 885.975 379.163 903.408 367.763 903.408L351.213 903.499V867.689L371.043 867.072L371.059 867.054Z" fill="#2684FF"/>
<path d="M354.267 800.063L337.766 812.43C331.774 817.006 335.461 823.852 341.064 829.027L356.231 843.028L371.53 814.264L354.267 800.063Z" fill="#91562D"/>
<path d="M360.714 810.904L347.382 810.778V785.3C347.382 781.559 350.369 778.508 354.04 778.508C357.725 778.508 360.698 781.541 360.698 785.3V810.904H360.714Z" fill="#91562D"/>
<path d="M345.043 781.996C345.271 773.188 350.061 770.138 356.768 769.828C363.475 769.519 367.454 775.44 367.876 784.228C367.876 784.228 367.973 785.263 368.006 785.791C368.071 786.934 368.851 787.915 368.997 790.022C369.16 792.419 368.364 793.018 368.119 796.069C367.584 802.624 365.813 802.243 363.313 802.243C359.447 802.243 355.939 799.992 353.001 796.015C349.248 792.401 344.75 792.618 345.026 782.013L345.043 781.996Z" fill="#91562D"/>
<path d="M342.362 784.955C346.928 784.955 350.629 780.817 350.629 775.713C350.629 770.608 346.928 766.468 342.362 766.468C337.798 766.468 334.097 770.608 334.097 775.713C334.097 780.817 337.798 784.955 342.362 784.955Z" fill="#1D304E"/>
<path d="M357.06 785.246C357.06 785.246 361.12 787.733 360.892 784.737C360.665 781.741 361.77 776.311 364.514 772.481C364.514 772.481 354.884 758.007 340.673 774.295C340.673 774.295 333.853 789.859 347.625 798.23C347.625 798.23 353.114 797.14 351.814 793.272C350.532 789.459 349.784 781.433 354.592 783.284L357.044 785.263L357.06 785.246Z" fill="#1D304E"/>
<path d="M360.309 890.75C360.535 884.632 351.295 879.529 345.806 879.529C340.349 879.529 334.763 884.595 334.942 890.679L337.411 948.698C337.475 953.764 341.145 957.83 345.693 957.83C350.241 957.83 353.91 953.745 353.975 948.698L360.309 890.75Z" fill="#2684FF"/>
<path d="M339.975 865.8C339.975 865.8 326.497 885.466 328.77 901.21C331.044 916.937 336.257 923.91 337.216 940.18L343.078 940.598L339.993 865.8H339.975Z" fill="#2684FF"/>
<path d="M353.943 948.696C353.78 943.74 350.126 939.763 345.643 939.763C341.162 939.763 337.508 943.74 337.345 948.696L338.45 1007.06L352.644 1006.93L353.943 948.696Z" fill="#2684FF"/>
<path d="M383.288 896.798C382.476 890.333 380.803 884.015 378.124 878.222C373.853 868.96 369.631 866.381 365.634 867.472L352.561 868.76C347.251 870.196 346.31 889.081 347.771 894.964L372.765 945.301C373.884 950.205 378.318 953.201 382.735 952.021C387.154 950.84 389.866 945.901 388.875 940.962L383.305 896.817L383.288 896.798Z" fill="#2684FF"/>
<path d="M388.907 943.686C388.746 938.728 385.092 934.751 380.609 934.751C376.126 934.751 372.472 938.728 372.311 943.686L373.414 1002.05L387.608 1001.92L388.907 943.686Z" fill="#2684FF"/>
<path d="M357.612 1018.48L356.525 1018.3C356.525 1018.3 351.019 1006.3 351.538 1013.4H340.837C339.975 1013.4 339.261 1014.18 339.261 1015.16V1022.55H361.51V1021.93C361.461 1020.19 359.138 1018.74 357.595 1018.48H357.612Z" fill="#FFF2FB"/>
<path d="M339.245 1024.15L361.43 1024.24C361.43 1024.24 361.932 1022.5 361.234 1020.93L339.245 1020.84V1024.15Z" fill="#FCC6EB"/>
<path d="M392.009 1018.48L390.921 1018.3C390.921 1018.3 385.415 1006.3 385.935 1013.4H375.233C374.373 1013.4 373.657 1014.18 373.657 1015.16V1022.55H395.906V1021.93C395.858 1020.19 393.536 1018.74 391.993 1018.48H392.009Z" fill="#FFF2FB"/>
<path d="M373.642 1024.15L395.826 1024.24C395.826 1024.24 396.33 1022.5 395.632 1020.93L373.642 1020.84V1024.15Z" fill="#FCC6EB"/>
<path d="M373.869 852.708C374.145 851.345 381.453 850.565 378.205 837.181C378.108 836.782 376.791 821.891 373.641 816.208C372.098 813.428 369.614 812.339 368.997 812.031C359.268 812.157 341.34 813.919 340.771 810.142C337.751 812.049 333.739 813.101 333.106 814.736C328.997 825.541 337.313 866.799 337.313 866.799C349.33 869.613 358.311 870.486 370.279 867.452C370.279 867.452 372.293 860.388 373.869 852.672V852.708Z" fill="#FFC400"/>
<path d="M371.4 863.131C360.049 864.383 354.202 865.582 336.63 862.64C336.144 862.549 336.922 868.234 337.523 868.36C348.713 870.503 359.805 870.631 370.898 868.251C371.693 868.087 372.034 863.058 371.4 863.131Z" fill="#0065FF"/>
<path d="M422.703 782.067C424.408 779.707 426.357 776.711 425.593 776.094C424.523 775.221 418.026 785.01 418.042 784.321C418.042 783.63 424.213 775.858 422.589 775.548C420.982 775.241 415.329 784.083 415.329 784.083C415.752 780.344 412.911 779.253 412.911 779.253C412.52 778.51 412.325 783.576 412.261 785.683C412.244 786.28 412.082 786.843 411.87 787.389C410.457 790.911 411.448 794.417 411.448 794.417C412.52 798.61 417.441 799.591 419.731 796.051L421.128 793.89C422.215 793.018 425.398 786.408 426.163 784.847C426.926 783.303 425.577 783.158 425.577 783.158C421.273 789.205 421.273 788.714 421.273 788.714C421.273 788.714 427.153 779.798 426.291 778.781C425.902 778.309 424.18 780.233 422.703 782.067Z" fill="#91562D"/>
<path d="M418.249 797.215C419.07 795.165 418.252 792.761 416.422 791.845C414.592 790.931 412.443 791.85 411.624 793.901L405.635 808.869C404.815 810.921 405.633 813.325 407.463 814.239C409.293 815.155 411.442 814.234 412.261 812.183L418.249 797.215Z" fill="#91562D"/>
<path d="M360.519 818.26C359.268 822.272 359.416 833.496 363.037 834.803L396.507 841.721H396.719C399.659 842.81 403.735 838.87 404.758 835.583C405.78 832.296 404.27 828.7 401.363 827.503L369.289 813.72C365.749 812.213 361.786 814.264 360.519 818.278V818.26Z" fill="#FFC400"/>
<path d="M411.596 794.906C409.987 794.218 408.185 795.016 407.438 796.74L392.009 833.223C390.906 836.618 392.431 840.396 395.453 841.704C398.473 843.011 402.761 843.483 403.979 840.142L419.472 802.224C419.943 800.39 413.17 795.597 411.563 794.906H411.596Z" fill="#FFC400"/>
<path d="M400.357 732.457L406.123 777.473L417.036 765.16L412.228 730.149L400.357 732.457Z" fill="white"/>
</g>
</g>
</g>
<defs>
<linearGradient id="paint0_linear_29_17751" x1="nan" y1="nan" x2="nan" y2="nan" gradientUnits="userSpaceOnUse">
<stop offset="0.1" stop-color="#57D9A3"/>
<stop offset="0.6" stop-color="#57D9A3"/>
</linearGradient>
<linearGradient id="paint1_linear_29_17751" x1="-2.0422" y1="1023.37" x2="-2.0422" y2="900.521" gradientUnits="userSpaceOnUse">
<stop stop-color="#57D9A3"/>
<stop offset="0.46" stop-color="#45C48F"/>
<stop offset="0.94" stop-color="#36B37E"/>
</linearGradient>
<linearGradient id="paint2_linear_29_17751" x1="199.157" y1="1089.07" x2="1070.12" y2="310.167" gradientUnits="userSpaceOnUse">
<stop offset="0.19" stop-color="#DEEBFF"/>
<stop offset="0.74" stop-color="white"/>
<stop offset="0.83" stop-color="#F9FCFF"/>
<stop offset="0.94" stop-color="#E9F2FF"/>
<stop offset="1" stop-color="#DEEBFF"/>
</linearGradient>
<linearGradient id="paint3_linear_29_17751" x1="430.888" y1="817.823" x2="582.036" y2="817.823" gradientUnits="userSpaceOnUse">
<stop stop-color="#253858"/>
<stop offset="1" stop-color="#253858"/>
</linearGradient>
<linearGradient id="paint4_linear_29_17751" x1="511.342" y1="802.988" x2="756.845" y2="802.988" gradientUnits="userSpaceOnUse">
<stop stop-color="#42526E"/>
<stop offset="1" stop-color="#A5ADBA"/>
</linearGradient>
<linearGradient id="paint5_linear_29_17751" x1="591.081" y1="1024.24" x2="591.081" y2="820.183" gradientUnits="userSpaceOnUse">
<stop stop-color="#ABF5D1"/>
<stop offset="1" stop-color="#36B37E"/>
</linearGradient>
<linearGradient id="paint6_linear_29_17751" x1="580.135" y1="1022.21" x2="580.135" y2="622.558" gradientUnits="userSpaceOnUse">
<stop stop-color="#253858" stop-opacity="0"/>
<stop offset="0.02" stop-color="#253858" stop-opacity="0.05"/>
<stop offset="0.19" stop-color="#253858" stop-opacity="0.39"/>
<stop offset="0.36" stop-color="#253858" stop-opacity="0.66"/>
<stop offset="0.54" stop-color="#253858" stop-opacity="0.85"/>
<stop offset="0.74" stop-color="#253858" stop-opacity="0.96"/>
<stop offset="1" stop-color="#253858"/>
</linearGradient>
<linearGradient id="paint7_linear_29_17751" x1="775.65" y1="605.633" x2="973.118" y2="429.017" gradientUnits="userSpaceOnUse">
<stop stop-color="#DEEBFF"/>
<stop offset="0.16" stop-color="#EEF5FF"/>
<stop offset="0.35" stop-color="#FBFCFF"/>
<stop offset="0.54" stop-color="white"/>
</linearGradient>
<linearGradient id="paint8_linear_29_17751" x1="221.488" y1="926.87" x2="221.488" y2="830.155" gradientUnits="userSpaceOnUse">
<stop stop-color="#00875A"/>
<stop offset="0.19" stop-color="#058C5E"/>
<stop offset="0.42" stop-color="#149A6B"/>
<stop offset="0.68" stop-color="#2DB17F"/>
<stop offset="0.94" stop-color="#4FD19C"/>
<stop offset="1" stop-color="#57D9A3"/>
</linearGradient>
<linearGradient id="paint9_linear_29_17751" x1="165.179" y1="940.987" x2="86.513" y2="875.3" gradientUnits="userSpaceOnUse">
<stop stop-color="#00875A"/>
<stop offset="0.24" stop-color="#109768"/>
<stop offset="0.72" stop-color="#3BBF8C"/>
<stop offset="1" stop-color="#57D9A3"/>
</linearGradient>
<linearGradient id="paint10_linear_29_17751" x1="157.825" y1="937.13" x2="104.242" y2="823.335" gradientUnits="userSpaceOnUse">
<stop stop-color="#00875A"/>
<stop offset="0.23" stop-color="#1A9F70"/>
<stop offset="0.66" stop-color="#46C995"/>
<stop offset="0.88" stop-color="#57D9A3"/>
</linearGradient>
<linearGradient id="paint11_linear_29_17751" x1="204.662" y1="889.715" x2="119.716" y2="825.97" gradientUnits="userSpaceOnUse">
<stop stop-color="#00875A"/>
<stop offset="0.02" stop-color="#038A5D"/>
<stop offset="0.31" stop-color="#27AC7B"/>
<stop offset="0.57" stop-color="#42C591"/>
<stop offset="0.81" stop-color="#51D49E"/>
<stop offset="1" stop-color="#57D9A3"/>
</linearGradient>
<linearGradient id="paint12_linear_29_17751" x1="206.401" y1="926.87" x2="206.401" y2="806.818" gradientUnits="userSpaceOnUse">
<stop stop-color="#00875A"/>
<stop offset="0.26" stop-color="#129869"/>
<stop offset="0.77" stop-color="#40C390"/>
<stop offset="1" stop-color="#57D9A3"/>
</linearGradient>
<linearGradient id="paint13_linear_29_17751" x1="172.945" y1="929.903" x2="121.398" y2="803.264" gradientUnits="userSpaceOnUse">
<stop stop-color="#00875A"/>
<stop offset="0.45" stop-color="#2FB381"/>
<stop offset="0.8" stop-color="#4CCF9A"/>
<stop offset="1" stop-color="#57D9A3"/>
</linearGradient>
<linearGradient id="paint14_linear_29_17751" x1="210.128" y1="945.929" x2="263.911" y2="848.4" gradientUnits="userSpaceOnUse">
<stop stop-color="#00875A"/>
<stop offset="0.22" stop-color="#13996A"/>
<stop offset="1" stop-color="#57D9A3"/>
</linearGradient>
<linearGradient id="paint15_linear_29_17751" x1="189.608" y1="926.87" x2="189.608" y2="782.595" gradientUnits="userSpaceOnUse">
<stop stop-color="#00875A"/>
<stop offset="0.26" stop-color="#20A675"/>
<stop offset="0.56" stop-color="#3EC28E"/>
<stop offset="0.82" stop-color="#50D39E"/>
<stop offset="1" stop-color="#57D9A3"/>
</linearGradient>
<linearGradient id="paint16_linear_29_17751" x1="261.503" y1="297.453" x2="236.343" y2="213.863" gradientUnits="userSpaceOnUse">
<stop stop-color="#0049B0"/>
<stop offset="1" stop-color="#0065FF"/>
</linearGradient>
<linearGradient id="paint17_linear_29_17751" x1="271.702" y1="293.731" x2="279.696" y2="247.97" gradientUnits="userSpaceOnUse">
<stop stop-color="#0049B0"/>
<stop offset="1" stop-color="#0065FF"/>
</linearGradient>
<linearGradient id="paint18_linear_29_17751" x1="283.914" y1="314.177" x2="321.46" y2="302.896" gradientUnits="userSpaceOnUse">
<stop stop-color="#0049B0"/>
<stop offset="1" stop-color="#0065FF"/>
</linearGradient>
<linearGradient id="paint19_linear_29_17751" x1="304.962" y1="293.839" x2="329.14" y2="275.232" gradientUnits="userSpaceOnUse">
<stop stop-color="#0049B0"/>
<stop offset="1" stop-color="#0065FF"/>
</linearGradient>
<clipPath id="clip0_29_17751">
<rect width="800" height="1024" fill="white"/>
</clipPath>
<clipPath id="clip1_29_17751">
<rect width="1466" height="965" fill="white" transform="translate(-142 135)"/>
</clipPath>
</defs>
</svg>
