<svg width="161" height="33" viewBox="0 0 161 33" fill="none" xmlns="http://www.w3.org/2000/svg">
<path d="M26 16.5C26 23.6797 20.1797 29.5 13 29.5C5.8203 29.5 0 23.6797 0 16.5C0 9.3203 5.8203 3.5 13 3.5C20.1797 3.5 26 9.3203 26 16.5ZM3.80036 16.5C3.80036 21.5808 7.91918 25.6996 13 25.6996C18.0808 25.6996 22.1996 21.5808 22.1996 16.5C22.1996 11.4192 18.0808 7.30036 13 7.30036C7.91918 7.30036 3.80036 11.4192 3.80036 16.5Z" fill="#0159EA"/>
<path d="M19.3064 15.9053C19.8442 15.8546 20.3282 16.2508 20.3067 16.7906C20.2793 17.4795 20.1546 18.1627 19.9348 18.8196C19.6114 19.7866 19.0893 20.6753 18.4021 21.4285C17.7148 22.1818 16.8777 22.783 15.9443 23.1935C15.011 23.6041 14.0021 23.8149 12.9825 23.8125C11.9628 23.81 10.9549 23.5944 10.0236 23.1793C9.09221 22.7643 8.25794 22.1591 7.57433 21.4025C6.89073 20.646 6.3729 19.7548 6.0541 18.7863C5.83752 18.1283 5.71605 17.4445 5.69196 16.7555C5.67309 16.2156 6.15896 15.8218 6.69654 15.8751C7.23411 15.9284 7.61735 16.41 7.66257 16.9483C7.69751 17.3644 7.78107 17.776 7.9123 18.1747C8.14581 18.8841 8.52511 19.5368 9.02583 20.091C9.52656 20.6451 10.1376 21.0885 10.8198 21.3925C11.502 21.6965 12.2403 21.8544 12.9871 21.8562C13.734 21.858 14.473 21.7036 15.1567 21.4029C15.8403 21.1021 16.4535 20.6618 16.9569 20.11C17.4603 19.5583 17.8427 18.9073 18.0796 18.199C18.2127 17.801 18.2983 17.3898 18.3352 16.9739C18.383 16.4359 18.7686 15.9561 19.3064 15.9053Z" fill="#0159EA"/>
<path d="M39.716 27V7.63H52.976V11.14H43.746V16.054H51.676V19.564H43.746V27H39.716ZM61.2739 27.312C59.7659 27.312 58.4572 26.9827 57.3479 26.324C56.2385 25.648 55.3805 24.7467 54.7739 23.62C54.1672 22.4933 53.8639 21.2453 53.8639 19.876C53.8639 18.4547 54.1759 17.1893 54.7999 16.08C55.4412 14.9707 56.2992 14.0953 57.3739 13.454C58.4485 12.8127 59.6619 12.492 61.0139 12.492C62.1405 12.492 63.1372 12.674 64.0039 13.038C64.8705 13.3847 65.5985 13.8787 66.1879 14.52C66.7945 15.1613 67.2539 15.9067 67.5659 16.756C67.8779 17.588 68.0339 18.498 68.0339 19.486C68.0339 19.7633 68.0165 20.0407 67.9819 20.318C67.9645 20.578 67.9212 20.8033 67.8519 20.994H57.2179V18.134H65.6419L63.7959 19.486C63.9692 18.7407 63.9605 18.082 63.7699 17.51C63.5792 16.9207 63.2412 16.4613 62.7559 16.132C62.2879 15.7853 61.7072 15.612 61.0139 15.612C60.3379 15.612 59.7572 15.7767 59.2719 16.106C58.7865 16.4353 58.4225 16.9207 58.1799 17.562C57.9372 18.2033 57.8419 18.9833 57.8939 19.902C57.8245 20.6993 57.9199 21.4013 58.1799 22.008C58.4399 22.6147 58.8385 23.0913 59.3759 23.438C59.9132 23.7673 60.5632 23.932 61.3259 23.932C62.0192 23.932 62.6085 23.7933 63.0939 23.516C63.5965 23.2387 63.9865 22.8573 64.2639 22.372L67.3839 23.854C67.1065 24.5473 66.6645 25.154 66.0579 25.674C65.4685 26.194 64.7665 26.6013 63.9519 26.896C63.1372 27.1733 62.2445 27.312 61.2739 27.312ZM77.1684 27.156C75.4524 27.156 74.1177 26.6967 73.1644 25.778C72.2284 24.842 71.7604 23.542 71.7604 21.878V16.184H69.3684V12.804H69.4984C70.2264 12.804 70.7811 12.622 71.1624 12.258C71.5611 11.894 71.7604 11.348 71.7604 10.62V9.58H75.6604V12.804H78.9884V16.184H75.6604V21.618C75.6604 22.1033 75.7471 22.5107 75.9204 22.84C76.0937 23.152 76.3624 23.386 76.7264 23.542C77.0904 23.698 77.5411 23.776 78.0784 23.776C78.1997 23.776 78.3384 23.7673 78.4944 23.75C78.6504 23.7327 78.8151 23.7153 78.9884 23.698V27C78.7284 27.0347 78.4337 27.0693 78.1044 27.104C77.7751 27.1387 77.4631 27.156 77.1684 27.156ZM81.2738 27V12.804H85.1738V27H81.2738ZM81.2738 11.53V7.63H85.1738V11.53H81.2738ZM88.0277 27V12.804H91.6677V15.612L91.4597 14.988C91.789 14.1387 92.3177 13.5147 93.0457 13.116C93.791 12.7 94.6577 12.492 95.6457 12.492C96.7203 12.492 97.6563 12.7173 98.4537 13.168C99.2683 13.6187 99.901 14.2513 100.352 15.066C100.802 15.8633 101.028 16.7993 101.028 17.874V27H97.1277V18.706C97.1277 18.1513 97.015 17.6747 96.7897 17.276C96.5817 16.8773 96.2783 16.5653 95.8797 16.34C95.4983 16.1147 95.0477 16.002 94.5277 16.002C94.025 16.002 93.5743 16.1147 93.1757 16.34C92.777 16.5653 92.465 16.8773 92.2397 17.276C92.0317 17.6747 91.9277 18.1513 91.9277 18.706V27H88.0277ZM107.12 27L113.672 7.63H119.028L125.58 27H121.186L119.886 23.048H112.788L111.488 27H107.12ZM113.906 19.538H118.768L115.804 10.386H116.896L113.906 19.538ZM127.307 32.2V12.804H130.947V15.508L130.609 14.728C131.077 14.0173 131.71 13.4713 132.507 13.09C133.322 12.6913 134.249 12.492 135.289 12.492C136.641 12.492 137.863 12.8213 138.955 13.48C140.047 14.1387 140.914 15.0313 141.555 16.158C142.196 17.2673 142.517 18.5153 142.517 19.902C142.517 21.2713 142.196 22.5193 141.555 23.646C140.931 24.7727 140.073 25.6653 138.981 26.324C137.889 26.9827 136.65 27.312 135.263 27.312C134.292 27.312 133.391 27.1387 132.559 26.792C131.744 26.428 131.086 25.8993 130.583 25.206L131.207 24.4V32.2H127.307ZM134.795 23.802C135.523 23.802 136.164 23.6373 136.719 23.308C137.274 22.9787 137.707 22.5193 138.019 21.93C138.331 21.3407 138.487 20.6647 138.487 19.902C138.487 19.1393 138.331 18.472 138.019 17.9C137.707 17.3107 137.274 16.8513 136.719 16.522C136.164 16.1753 135.523 16.002 134.795 16.002C134.102 16.002 133.478 16.1667 132.923 16.496C132.386 16.8253 131.961 17.2847 131.649 17.874C131.354 18.4633 131.207 19.1393 131.207 19.902C131.207 20.6647 131.354 21.3407 131.649 21.93C131.961 22.5193 132.386 22.9787 132.923 23.308C133.478 23.6373 134.102 23.802 134.795 23.802ZM144.801 32.2V12.804H148.441V15.508L148.103 14.728C148.571 14.0173 149.204 13.4713 150.001 13.09C150.816 12.6913 151.743 12.492 152.783 12.492C154.135 12.492 155.357 12.8213 156.449 13.48C157.541 14.1387 158.408 15.0313 159.049 16.158C159.69 17.2673 160.011 18.5153 160.011 19.902C160.011 21.2713 159.69 22.5193 159.049 23.646C158.425 24.7727 157.567 25.6653 156.475 26.324C155.383 26.9827 154.144 27.312 152.757 27.312C151.786 27.312 150.885 27.1387 150.053 26.792C149.238 26.428 148.58 25.8993 148.077 25.206L148.701 24.4V32.2H144.801ZM152.289 23.802C153.017 23.802 153.658 23.6373 154.213 23.308C154.768 22.9787 155.201 22.5193 155.513 21.93C155.825 21.3407 155.981 20.6647 155.981 19.902C155.981 19.1393 155.825 18.472 155.513 17.9C155.201 17.3107 154.768 16.8513 154.213 16.522C153.658 16.1753 153.017 16.002 152.289 16.002C151.596 16.002 150.972 16.1667 150.417 16.496C149.88 16.8253 149.455 17.2847 149.143 17.874C148.848 18.4633 148.701 19.1393 148.701 19.902C148.701 20.6647 148.848 21.3407 149.143 21.93C149.455 22.5193 149.88 22.9787 150.417 23.308C150.972 23.6373 151.596 23.802 152.289 23.802Z" fill="#1E293B"/>
</svg>
