<svg width="21" height="20" viewBox="0 0 21 20" fill="none" xmlns="http://www.w3.org/2000/svg">
<path d="M10.625 13.75V15.5" stroke="#94A3B8" stroke-width="1.5" stroke-linecap="round" stroke-linejoin="round"/>
<path d="M6.45825 18.3333H14.7916V17.4999C14.7916 16.5833 14.0416 15.8333 13.1249 15.8333H8.12492C7.20825 15.8333 6.45825 16.5833 6.45825 17.4999V18.3333V18.3333Z" stroke="#94A3B8" stroke-width="1.5" stroke-miterlimit="10"/>
<path d="M5.625 18.3333H15.625" stroke="#94A3B8" stroke-width="1.5" stroke-linecap="round" stroke-linejoin="round"/>
<path d="M10.5001 13.3334C7.27508 13.3334 4.66675 10.7251 4.66675 7.50008V5.00008C4.66675 3.15841 6.15841 1.66675 8.00008 1.66675H13.0001C14.8417 1.66675 16.3334 3.15841 16.3334 5.00008V7.50008C16.3334 10.7251 13.7251 13.3334 10.5001 13.3334Z" stroke="#94A3B8" stroke-width="1.5" stroke-linecap="round" stroke-linejoin="round"/>
<path d="M5.05828 9.70833C4.43328 9.50833 3.88328 9.14167 3.44995 8.70833C2.69995 7.875 2.19995 6.875 2.19995 5.70833C2.19995 4.54167 3.11662 3.625 4.28328 3.625H4.82495C4.65828 4.00833 4.57495 4.43333 4.57495 4.875V7.375C4.57495 8.20833 4.74995 8.99167 5.05828 9.70833Z" stroke="#94A3B8" stroke-width="1.5" stroke-linecap="round" stroke-linejoin="round"/>
<path d="M15.9417 9.70833C16.5667 9.50833 17.1166 9.14167 17.55 8.70833C18.3 7.875 18.8 6.875 18.8 5.70833C18.8 4.54167 17.8833 3.625 16.7166 3.625H16.175C16.3416 4.00833 16.425 4.43333 16.425 4.875V7.375C16.425 8.20833 16.25 8.99167 15.9417 9.70833Z" stroke="#94A3B8" stroke-width="1.5" stroke-linecap="round" stroke-linejoin="round"/>
</svg>
