<svg width="16" height="16" viewBox="0 0 16 16" fill="none" xmlns="http://www.w3.org/2000/svg">
<path fill-rule="evenodd" clip-rule="evenodd" d="M11.333 7.16671C9.71967 7.16671 8.83301 6.28004 8.83301 4.66671V3.33337C8.83301 1.72004 9.71967 0.833374 11.333 0.833374H12.6663C14.2797 0.833374 15.1663 1.72004 15.1663 3.33337V4.66671C15.1663 6.28004 14.2797 7.16671 12.6663 7.16671H11.333ZM9.83301 3.33337V4.66671C9.83301 5.72004 10.2797 6.16671 11.333 6.16671H12.6663C13.7197 6.16671 14.1663 5.72004 14.1663 4.66671V3.33337C14.1663 2.28004 13.7197 1.83337 12.6663 1.83337H11.333C10.2797 1.83337 9.83301 2.28004 9.83301 3.33337Z" fill="#1E293B"/>
<path fill-rule="evenodd" clip-rule="evenodd" d="M3.33301 15.1667C1.71967 15.1667 0.833008 14.28 0.833008 12.6667V11.3334C0.833008 9.72004 1.71967 8.83337 3.33301 8.83337H4.66634C6.27967 8.83337 7.16634 9.72004 7.16634 11.3334V12.6667C7.16634 14.28 6.27967 15.1667 4.66634 15.1667H3.33301ZM1.83301 11.3334V12.6667C1.83301 13.72 2.27967 14.1667 3.33301 14.1667H4.66634C5.71967 14.1667 6.16634 13.72 6.16634 12.6667V11.3334C6.16634 10.28 5.71967 9.83337 4.66634 9.83337H3.33301C2.27967 9.83337 1.83301 10.28 1.83301 11.3334Z" fill="#1E293B"/>
<path fill-rule="evenodd" clip-rule="evenodd" d="M0.833008 4.00004C0.833008 2.25337 2.25301 0.833374 3.99967 0.833374C5.74634 0.833374 7.16634 2.25337 7.16634 4.00004C7.16634 5.74671 5.74634 7.16671 3.99967 7.16671C2.25301 7.16671 0.833008 5.74671 0.833008 4.00004ZM1.83301 4.00004C1.83301 5.19337 2.80634 6.16671 3.99967 6.16671C5.19301 6.16671 6.16634 5.19337 6.16634 4.00004C6.16634 2.80671 5.19301 1.83337 3.99967 1.83337C2.80634 1.83337 1.83301 2.80671 1.83301 4.00004Z" fill="#1E293B"/>
<path fill-rule="evenodd" clip-rule="evenodd" d="M8.83301 12C8.83301 10.2534 10.253 8.83337 11.9997 8.83337C13.7463 8.83337 15.1663 10.2534 15.1663 12C15.1663 13.7467 13.7463 15.1667 11.9997 15.1667C10.253 15.1667 8.83301 13.7467 8.83301 12ZM9.83301 12C9.83301 13.1934 10.8063 14.1667 11.9997 14.1667C13.193 14.1667 14.1663 13.1934 14.1663 12C14.1663 10.8067 13.193 9.83337 11.9997 9.83337C10.8063 9.83337 9.83301 10.8067 9.83301 12Z" fill="#1E293B"/>
</svg>
