<svg width="21" height="20" viewBox="0 0 21 20" fill="none" xmlns="http://www.w3.org/2000/svg">
<path d="M8.13338 9.05841C8.05005 9.05008 7.95005 9.05008 7.85838 9.05841C5.87505 8.99175 4.30005 7.36675 4.30005 5.36675C4.30005 3.32508 5.95005 1.66675 8.00005 1.66675C10.0417 1.66675 11.7 3.32508 11.7 5.36675C11.6917 7.36675 10.1167 8.99175 8.13338 9.05841Z" stroke="#94A3B8" stroke-width="1.5" stroke-linecap="round" stroke-linejoin="round"/>
<path d="M14.175 3.33325C15.7916 3.33325 17.0917 4.64159 17.0917 6.24992C17.0917 7.82492 15.8417 9.10825 14.2833 9.16659C14.2167 9.15825 14.1417 9.15825 14.0667 9.16659" stroke="#94A3B8" stroke-width="1.5" stroke-linecap="round" stroke-linejoin="round"/>
<path d="M3.9666 12.1333C1.94993 13.4833 1.94993 15.6833 3.9666 17.0249C6.25827 18.5583 10.0166 18.5583 12.3083 17.0249C14.3249 15.6749 14.3249 13.4749 12.3083 12.1333C10.0249 10.6083 6.2666 10.6083 3.9666 12.1333Z" stroke="#94A3B8" stroke-width="1.5" stroke-linecap="round" stroke-linejoin="round"/>
<path d="M15.7834 16.6667C16.3834 16.5417 16.9501 16.3001 17.4168 15.9417C18.7168 14.9667 18.7168 13.3584 17.4168 12.3834C16.9584 12.0334 16.4001 11.8001 15.8084 11.6667" stroke="#94A3B8" stroke-width="1.5" stroke-linecap="round" stroke-linejoin="round"/>
</svg>
